<?xml version="1.0" encoding="UTF-8" standalone="no"?>
<!DOCTYPE svg PUBLIC "-//W3C//DTD SVG 1.1//EN"
 "http://www.w3.org/Graphics/SVG/1.1/DTD/svg11.dtd">
<!-- Generated by graphviz version 2.30.1 (20130315.0747)
 -->
<!-- Title: %3 Pages: 1 -->
<svg width="148pt" height="158pt"
 viewBox="0.00 0.00 148.00 158.00" xmlns="http://www.w3.org/2000/svg" xmlns:xlink="http://www.w3.org/1999/xlink">
<g id="graph0" class="graph" transform="scale(1 1) rotate(0) translate(4 154)">
<title>%3</title>
<polygon fill="white" stroke="white" points="-4,5 -4,-154 145,-154 145,5 -4,5"/>
<!-- 0 -->
<g id="node1" class="node"><title>0</title>
<path fill="#0d2c7c" stroke="#0d2c7c" d="M82.118,-53.9961C82.118,-53.9961 23.882,-53.9961 23.882,-53.9961 17.882,-53.9961 11.882,-47.9961 11.882,-41.9961 11.882,-41.9961 11.882,-12.0039 11.882,-12.0039 11.882,-6.00391 17.882,-0.00390611 23.882,-0.00390611 23.882,-0.00390611 82.118,-0.00390611 82.118,-0.00390611 88.118,-0.00390611 94.118,-6.00391 94.118,-12.0039 94.118,-12.0039 94.118,-41.9961 94.118,-41.9961 94.118,-47.9961 88.118,-53.9961 82.118,-53.9961"/>
<text text-anchor="middle" x="53" y="-39.998" font-family="Arial" font-size="10.00" fill="#ffffff">fib:1:&lt;module&gt;</text>
<text text-anchor="middle" x="53" y="-28.499" font-family="Arial" font-size="10.00" fill="#ffffff">7.02%</text>
<text text-anchor="middle" x="53" y="-17" font-family="Arial" font-size="10.00" fill="#ffffff">(7.02%)</text>
<text text-anchor="middle" x="53" y="-5.50098" font-family="Arial" font-size="10.00" fill="#ffffff">4</text>
</g>
<!-- 0&#45;&gt;0 -->
<g id="edge1" class="edge"><title>0&#45;&gt;0</title>
<path fill="none" stroke="#0d1c77" stroke-width="0.5" d="M94.3832,-34.8376C99.58,-33.4563 103,-30.8438 103,-27 103,-24.1172 101.076,-21.9269 97.922,-20.4292"/>
<polygon fill="#0d1c77" stroke="#0d1c77" points="98.0913,-19.1888 94.3832,-19.1624 97.2655,-21.4954 98.0913,-19.1888"/>
<text text-anchor="middle" x="117.177" y="-28.499" font-family="Arial" font-size="10.00" fill="#0d1c77">3.51%</text>
<text text-anchor="middle" x="117.177" y="-17" font-family="Arial" font-size="10.00" fill="#0d1c77">2</text>
</g>
<!-- 1 -->
<g id="node2" class="node"><title>1</title>
<path fill="#ff0000" stroke="#ff0000" d="M94.2978,-149.996C94.2978,-149.996 11.7022,-149.996 11.7022,-149.996 5.70219,-149.996 -0.297814,-143.996 -0.297814,-137.996 -0.297814,-137.996 -0.297814,-108.004 -0.297814,-108.004 -0.297814,-102.004 5.70219,-96.0039 11.7022,-96.0039 11.7022,-96.0039 94.2978,-96.0039 94.2978,-96.0039 100.298,-96.0039 106.298,-102.004 106.298,-108.004 106.298,-108.004 106.298,-137.996 106.298,-137.996 106.298,-143.996 100.298,-149.996 94.2978,-149.996"/>
<text text-anchor="middle" x="53" y="-135.998" font-family="Arial" font-size="10.00" fill="#ffffff">&lt;string&gt;:1:&lt;module&gt;</text>
<text text-anchor="middle" x="53" y="-124.499" font-family="Arial" font-size="10.00" fill="#ffffff">100.00%</text>
<text text-anchor="middle" x="53" y="-113" font-family="Arial" font-size="10.00" fill="#ffffff">(92.98%)</text>
<text text-anchor="middle" x="53" y="-101.501" font-family="Arial" font-size="10.00" fill="#ffffff">2</text>
</g>
<!-- 1&#45;&gt;0 -->
<g id="edge2" class="edge"><title>1&#45;&gt;0</title>
<path fill="none" stroke="#0d1c77" stroke-width="0.5" d="M53,-95.8158C53,-84.0003 53,-69.9854 53,-57.7719"/>
<polygon fill="#0d1c77" stroke="#0d1c77" points="54.2251,-57.5438 53,-54.0438 51.7751,-57.5439 54.2251,-57.5438"/>
<text text-anchor="middle" x="67.1772" y="-76.499" font-family="Arial" font-size="10.00" fill="#0d1c77">3.51%</text>
<text text-anchor="middle" x="67.1772" y="-65" font-family="Arial" font-size="10.00" fill="#0d1c77">2</text>
</g>
</g>
</svg>
