<?xml version="1.0" encoding="UTF-8" standalone="no"?>
<!DOCTYPE svg PUBLIC "-//W3C//DTD SVG 1.1//EN"
 "http://www.w3.org/Graphics/SVG/1.1/DTD/svg11.dtd">
<!-- Generated by graphviz version 2.30.1 (20130315.0747)
 -->
<!-- Title: %3 Pages: 1 -->
<svg width="725pt" height="1118pt"
 viewBox="0.00 0.00 725.00 1118.00" xmlns="http://www.w3.org/2000/svg" xmlns:xlink="http://www.w3.org/1999/xlink">
<g id="graph0" class="graph" transform="scale(1 1) rotate(0) translate(4 1114)">
<title>%3</title>
<polygon fill="white" stroke="white" points="-4,5 -4,-1114 722,-1114 722,5 -4,5"/>
<!-- 1 -->
<g id="node1" class="node"><title>1</title>
<path fill="#ef6603" stroke="#ef6603" d="M448.14,-1014C448.14,-1014 359.86,-1014 359.86,-1014 353.86,-1014 347.86,-1008 347.86,-1002 347.86,-1002 347.86,-972.004 347.86,-972.004 347.86,-966.004 353.86,-960.004 359.86,-960.004 359.86,-960.004 448.14,-960.004 448.14,-960.004 454.14,-960.004 460.14,-966.004 460.14,-972.004 460.14,-972.004 460.14,-1002 460.14,-1002 460.14,-1008 454.14,-1014 448.14,-1014"/>
<text text-anchor="middle" x="404" y="-999.998" font-family="Arial" font-size="10.00" fill="#ffffff">__init__:24:&lt;module&gt;</text>
<text text-anchor="middle" x="404" y="-988.499" font-family="Arial" font-size="10.00" fill="#ffffff">89.53%</text>
<text text-anchor="middle" x="404" y="-977" font-family="Arial" font-size="10.00" fill="#ffffff">(43.41%)</text>
<text text-anchor="middle" x="404" y="-965.501" font-family="Arial" font-size="10.00" fill="#ffffff">1</text>
</g>
<!-- 6 -->
<g id="node2" class="node"><title>6</title>
<path fill="#0aaf2c" stroke="#0aaf2c" d="M431.471,-917.996C431.471,-917.996 342.529,-917.996 342.529,-917.996 336.529,-917.996 330.529,-911.996 330.529,-905.996 330.529,-905.996 330.529,-876.004 330.529,-876.004 330.529,-870.004 336.529,-864.004 342.529,-864.004 342.529,-864.004 431.471,-864.004 431.471,-864.004 437.471,-864.004 443.471,-870.004 443.471,-876.004 443.471,-876.004 443.471,-905.996 443.471,-905.996 443.471,-911.996 437.471,-917.996 431.471,-917.996"/>
<text text-anchor="middle" x="387" y="-903.998" font-family="Arial" font-size="10.00" fill="#ffffff">threading:1:&lt;module&gt;</text>
<text text-anchor="middle" x="387" y="-892.499" font-family="Arial" font-size="10.00" fill="#ffffff">44.93%</text>
<text text-anchor="middle" x="387" y="-881" font-family="Arial" font-size="10.00" fill="#ffffff">(8.76%)</text>
<text text-anchor="middle" x="387" y="-869.501" font-family="Arial" font-size="10.00" fill="#ffffff">1</text>
</g>
<!-- 1&#45;&gt;6 -->
<g id="edge1" class="edge"><title>1&#45;&gt;6</title>
<path fill="none" stroke="#0aaf2c" stroke-width="1.8" d="M399.265,-959.816C397.294,-948.917 394.984,-936.147 392.904,-924.645"/>
<polygon fill="#0aaf2c" stroke="#0aaf2c" points="395.21,-924.22 391.71,-918.044 390.595,-925.054 395.21,-924.22"/>
<text text-anchor="middle" x="414.958" y="-940.499" font-family="Arial" font-size="10.00" fill="#0aaf2c">44.93%</text>
<text text-anchor="middle" x="414.958" y="-929" font-family="Arial" font-size="10.00" fill="#0aaf2c">1</text>
</g>
<!-- 65 -->
<g id="node6" class="node"><title>65</title>
<path fill="#0d2078" stroke="#0d2078" d="M306.21,-821.996C306.21,-821.996 199.79,-821.996 199.79,-821.996 193.79,-821.996 187.79,-815.996 187.79,-809.996 187.79,-809.996 187.79,-780.004 187.79,-780.004 187.79,-774.004 193.79,-768.004 199.79,-768.004 199.79,-768.004 306.21,-768.004 306.21,-768.004 312.21,-768.004 318.21,-774.004 318.21,-780.004 318.21,-780.004 318.21,-809.996 318.21,-809.996 318.21,-815.996 312.21,-821.996 306.21,-821.996"/>
<text text-anchor="middle" x="253" y="-807.998" font-family="Arial" font-size="10.00" fill="#ffffff">warnings:45:filterwarnings</text>
<text text-anchor="middle" x="253" y="-796.499" font-family="Arial" font-size="10.00" fill="#ffffff">4.45%</text>
<text text-anchor="middle" x="253" y="-785" font-family="Arial" font-size="10.00" fill="#ffffff">(0.09%)</text>
<text text-anchor="middle" x="253" y="-773.501" font-family="Arial" font-size="10.00" fill="#ffffff">1</text>
</g>
<!-- 6&#45;&gt;65 -->
<g id="edge4" class="edge"><title>6&#45;&gt;65</title>
<path fill="none" stroke="#0d2078" stroke-width="0.5" d="M349.674,-863.816C332.104,-851.491 311.123,-836.773 293.204,-824.203"/>
<polygon fill="#0d2078" stroke="#0d2078" points="293.695,-823.051 290.126,-822.044 292.288,-825.057 293.695,-823.051"/>
<text text-anchor="middle" x="350.177" y="-844.499" font-family="Arial" font-size="10.00" fill="#0d2078">4.45%</text>
<text text-anchor="middle" x="350.177" y="-833" font-family="Arial" font-size="10.00" fill="#0d2078">1</text>
</g>
<!-- 19 -->
<g id="node7" class="node"><title>19</title>
<path fill="#0c9a7d" stroke="#0c9a7d" d="M434.214,-821.996C434.214,-821.996 339.786,-821.996 339.786,-821.996 333.786,-821.996 327.786,-815.996 327.786,-809.996 327.786,-809.996 327.786,-780.004 327.786,-780.004 327.786,-774.004 333.786,-768.004 339.786,-768.004 339.786,-768.004 434.214,-768.004 434.214,-768.004 440.214,-768.004 446.214,-774.004 446.214,-780.004 446.214,-780.004 446.214,-809.996 446.214,-809.996 446.214,-815.996 440.214,-821.996 434.214,-821.996"/>
<text text-anchor="middle" x="387" y="-807.998" font-family="Arial" font-size="10.00" fill="#ffffff">collections:1:&lt;module&gt;</text>
<text text-anchor="middle" x="387" y="-796.499" font-family="Arial" font-size="10.00" fill="#ffffff">30.07%</text>
<text text-anchor="middle" x="387" y="-785" font-family="Arial" font-size="10.00" fill="#ffffff">(13.12%)</text>
<text text-anchor="middle" x="387" y="-773.501" font-family="Arial" font-size="10.00" fill="#ffffff">1</text>
</g>
<!-- 6&#45;&gt;19 -->
<g id="edge5" class="edge"><title>6&#45;&gt;19</title>
<path fill="none" stroke="#0c9a7d" stroke-width="1.2" d="M387,-863.816C387,-852.611 387,-839.429 387,-827.681"/>
<polygon fill="#0c9a7d" stroke="#0c9a7d" points="388.925,-827.544 387,-822.044 385.075,-827.544 388.925,-827.544"/>
<text text-anchor="middle" x="403.958" y="-844.499" font-family="Arial" font-size="10.00" fill="#0c9a7d">30.07%</text>
<text text-anchor="middle" x="403.958" y="-833" font-family="Arial" font-size="10.00" fill="#0c9a7d">1</text>
</g>
<!-- 69 -->
<g id="node8" class="node"><title>69</title>
<path fill="#0d1174" stroke="#0d1174" d="M558.227,-821.996C558.227,-821.996 467.773,-821.996 467.773,-821.996 461.773,-821.996 455.773,-815.996 455.773,-809.996 455.773,-809.996 455.773,-780.004 455.773,-780.004 455.773,-774.004 461.773,-768.004 467.773,-768.004 467.773,-768.004 558.227,-768.004 558.227,-768.004 564.227,-768.004 570.227,-774.004 570.227,-780.004 570.227,-780.004 570.227,-809.996 570.227,-809.996 570.227,-815.996 564.227,-821.996 558.227,-821.996"/>
<text text-anchor="middle" x="513" y="-807.998" font-family="Arial" font-size="10.00" fill="#ffffff">threading:764:__init__</text>
<text text-anchor="middle" x="513" y="-796.499" font-family="Arial" font-size="10.00" fill="#ffffff">1.07%</text>
<text text-anchor="middle" x="513" y="-785" font-family="Arial" font-size="10.00" fill="#ffffff">(0.15%)</text>
<text text-anchor="middle" x="513" y="-773.501" font-family="Arial" font-size="10.00" fill="#ffffff">1</text>
</g>
<!-- 6&#45;&gt;69 -->
<g id="edge6" class="edge"><title>6&#45;&gt;69</title>
<path fill="none" stroke="#0d1174" stroke-width="0.5" d="M422.098,-863.816C438.618,-851.491 458.347,-836.773 475.196,-824.203"/>
<polygon fill="#0d1174" stroke="#0d1174" points="476.017,-825.119 478.09,-822.044 474.552,-823.155 476.017,-825.119"/>
<text text-anchor="middle" x="479.177" y="-844.499" font-family="Arial" font-size="10.00" fill="#0d1174">1.07%</text>
<text text-anchor="middle" x="479.177" y="-833" font-family="Arial" font-size="10.00" fill="#0d1174">1</text>
</g>
<!-- 2 -->
<g id="node3" class="node"><title>2</title>
<path fill="#0d0f73" stroke="#0d0f73" d="M113.959,-341.996C113.959,-341.996 12.0412,-341.996 12.0412,-341.996 6.04117,-341.996 0.0411704,-335.996 0.0411704,-329.996 0.0411704,-329.996 0.0411704,-300.004 0.0411704,-300.004 0.0411704,-294.004 6.04117,-288.004 12.0412,-288.004 12.0412,-288.004 113.959,-288.004 113.959,-288.004 119.959,-288.004 125.959,-294.004 125.959,-300.004 125.959,-300.004 125.959,-329.996 125.959,-329.996 125.959,-335.996 119.959,-341.996 113.959,-341.996"/>
<text text-anchor="middle" x="63" y="-327.998" font-family="Arial" font-size="10.00" fill="#ffffff">sre_compile:32:_compile</text>
<text text-anchor="middle" x="63" y="-316.499" font-family="Arial" font-size="10.00" fill="#ffffff">0.51%</text>
<text text-anchor="middle" x="63" y="-305" font-family="Arial" font-size="10.00" fill="#ffffff">(0.33%)</text>
<text text-anchor="middle" x="63" y="-293.501" font-family="Arial" font-size="10.00" fill="#ffffff">2</text>
</g>
<!-- 3 -->
<g id="node4" class="node"><title>3</title>
<path fill="#0d1375" stroke="#0d1375" d="M259.548,-437.996C259.548,-437.996 164.452,-437.996 164.452,-437.996 158.452,-437.996 152.452,-431.996 152.452,-425.996 152.452,-425.996 152.452,-396.004 152.452,-396.004 152.452,-390.004 158.452,-384.004 164.452,-384.004 164.452,-384.004 259.548,-384.004 259.548,-384.004 265.548,-384.004 271.548,-390.004 271.548,-396.004 271.548,-396.004 271.548,-425.996 271.548,-425.996 271.548,-431.996 265.548,-437.996 259.548,-437.996"/>
<text text-anchor="middle" x="212" y="-423.998" font-family="Arial" font-size="10.00" fill="#ffffff">sre_compile:480:_code</text>
<text text-anchor="middle" x="212" y="-412.499" font-family="Arial" font-size="10.00" fill="#ffffff">1.62%</text>
<text text-anchor="middle" x="212" y="-401" font-family="Arial" font-size="10.00" fill="#ffffff">(0.07%)</text>
<text text-anchor="middle" x="212" y="-389.501" font-family="Arial" font-size="10.00" fill="#ffffff">2</text>
</g>
<!-- 3&#45;&gt;2 -->
<g id="edge2" class="edge"><title>3&#45;&gt;2</title>
<path fill="none" stroke="#0d0f73" stroke-width="0.5" d="M170.495,-383.816C150.959,-371.491 127.63,-356.773 107.705,-344.203"/>
<polygon fill="#0d0f73" stroke="#0d0f73" points="107.896,-342.875 104.282,-342.044 106.589,-344.947 107.896,-342.875"/>
<text text-anchor="middle" x="170.177" y="-364.499" font-family="Arial" font-size="10.00" fill="#0d0f73">0.51%</text>
<text text-anchor="middle" x="170.177" y="-353" font-family="Arial" font-size="10.00" fill="#0d0f73">2</text>
</g>
<!-- 30 -->
<g id="node5" class="node"><title>30</title>
<path fill="#0d1174" stroke="#0d1174" d="M276.393,-341.996C276.393,-341.996 147.607,-341.996 147.607,-341.996 141.607,-341.996 135.607,-335.996 135.607,-329.996 135.607,-329.996 135.607,-300.004 135.607,-300.004 135.607,-294.004 141.607,-288.004 147.607,-288.004 147.607,-288.004 276.393,-288.004 276.393,-288.004 282.393,-288.004 288.393,-294.004 288.393,-300.004 288.393,-300.004 288.393,-329.996 288.393,-329.996 288.393,-335.996 282.393,-341.996 276.393,-341.996"/>
<text text-anchor="middle" x="212" y="-327.998" font-family="Arial" font-size="10.00" fill="#ffffff">sre_compile:361:_compile_info</text>
<text text-anchor="middle" x="212" y="-316.499" font-family="Arial" font-size="10.00" fill="#ffffff">1.03%</text>
<text text-anchor="middle" x="212" y="-305" font-family="Arial" font-size="10.00" fill="#ffffff">(0.57%)</text>
<text text-anchor="middle" x="212" y="-293.501" font-family="Arial" font-size="10.00" fill="#ffffff">2</text>
</g>
<!-- 3&#45;&gt;30 -->
<g id="edge3" class="edge"><title>3&#45;&gt;30</title>
<path fill="none" stroke="#0d1174" stroke-width="0.5" d="M212,-383.816C212,-372 212,-357.985 212,-345.772"/>
<polygon fill="#0d1174" stroke="#0d1174" points="213.225,-345.544 212,-342.044 210.775,-345.544 213.225,-345.544"/>
<text text-anchor="middle" x="226.177" y="-364.499" font-family="Arial" font-size="10.00" fill="#0d1174">1.03%</text>
<text text-anchor="middle" x="226.177" y="-353" font-family="Arial" font-size="10.00" fill="#0d1174">2</text>
</g>
<!-- 33 -->
<g id="node20" class="node"><title>33</title>
<path fill="#0d1f78" stroke="#0d1f78" d="M281.196,-725.996C281.196,-725.996 224.804,-725.996 224.804,-725.996 218.804,-725.996 212.804,-719.996 212.804,-713.996 212.804,-713.996 212.804,-684.004 212.804,-684.004 212.804,-678.004 218.804,-672.004 224.804,-672.004 224.804,-672.004 281.196,-672.004 281.196,-672.004 287.196,-672.004 293.196,-678.004 293.196,-684.004 293.196,-684.004 293.196,-713.996 293.196,-713.996 293.196,-719.996 287.196,-725.996 281.196,-725.996"/>
<text text-anchor="middle" x="253" y="-711.998" font-family="Arial" font-size="10.00" fill="#ffffff">re:188:compile</text>
<text text-anchor="middle" x="253" y="-700.499" font-family="Arial" font-size="10.00" fill="#ffffff">4.26%</text>
<text text-anchor="middle" x="253" y="-689" font-family="Arial" font-size="10.00" fill="#ffffff">(0.07%)</text>
<text text-anchor="middle" x="253" y="-677.501" font-family="Arial" font-size="10.00" fill="#ffffff">2</text>
</g>
<!-- 65&#45;&gt;33 -->
<g id="edge20" class="edge"><title>65&#45;&gt;33</title>
<path fill="none" stroke="#0d1f78" stroke-width="0.5" d="M253,-767.816C253,-756 253,-741.985 253,-729.772"/>
<polygon fill="#0d1f78" stroke="#0d1f78" points="254.225,-729.544 253,-726.044 251.775,-729.544 254.225,-729.544"/>
<text text-anchor="middle" x="267.177" y="-748.499" font-family="Arial" font-size="10.00" fill="#0d1f78">4.26%</text>
<text text-anchor="middle" x="267.177" y="-737" font-family="Arial" font-size="10.00" fill="#0d1f78">2</text>
</g>
<!-- 73 -->
<g id="node15" class="node"><title>73</title>
<path fill="#0c5e88" stroke="#0c5e88" d="M427.224,-725.996C427.224,-725.996 346.776,-725.996 346.776,-725.996 340.776,-725.996 334.776,-719.996 334.776,-713.996 334.776,-713.996 334.776,-684.004 334.776,-684.004 334.776,-678.004 340.776,-672.004 346.776,-672.004 346.776,-672.004 427.224,-672.004 427.224,-672.004 433.224,-672.004 439.224,-678.004 439.224,-684.004 439.224,-684.004 439.224,-713.996 439.224,-713.996 439.224,-719.996 433.224,-725.996 427.224,-725.996"/>
<text text-anchor="middle" x="387" y="-711.998" font-family="Arial" font-size="10.00" fill="#ffffff">heapq:31:&lt;module&gt;</text>
<text text-anchor="middle" x="387" y="-700.499" font-family="Arial" font-size="10.00" fill="#ffffff">16.57%</text>
<text text-anchor="middle" x="387" y="-689" font-family="Arial" font-size="10.00" fill="#ffffff">(12.64%)</text>
<text text-anchor="middle" x="387" y="-677.501" font-family="Arial" font-size="10.00" fill="#ffffff">1</text>
</g>
<!-- 19&#45;&gt;73 -->
<g id="edge12" class="edge"><title>19&#45;&gt;73</title>
<path fill="none" stroke="#0c5e88" stroke-width="0.66" d="M387,-767.816C387,-756.204 387,-742.468 387,-730.405"/>
<polygon fill="#0c5e88" stroke="#0c5e88" points="388.435,-730.144 387,-726.044 385.565,-730.144 388.435,-730.144"/>
<text text-anchor="middle" x="403.958" y="-748.499" font-family="Arial" font-size="10.00" fill="#0c5e88">16.57%</text>
<text text-anchor="middle" x="403.958" y="-737" font-family="Arial" font-size="10.00" fill="#0c5e88">1</text>
</g>
<!-- 26 -->
<g id="node17" class="node"><title>26</title>
<path fill="#0d1074" stroke="#0d1074" d="M558.227,-725.996C558.227,-725.996 467.773,-725.996 467.773,-725.996 461.773,-725.996 455.773,-719.996 455.773,-713.996 455.773,-713.996 455.773,-684.004 455.773,-684.004 455.773,-678.004 461.773,-672.004 467.773,-672.004 467.773,-672.004 558.227,-672.004 558.227,-672.004 564.227,-672.004 570.227,-678.004 570.227,-684.004 570.227,-684.004 570.227,-713.996 570.227,-713.996 570.227,-719.996 564.227,-725.996 558.227,-725.996"/>
<text text-anchor="middle" x="513" y="-711.998" font-family="Arial" font-size="10.00" fill="#ffffff">threading:436:__init__</text>
<text text-anchor="middle" x="513" y="-700.499" font-family="Arial" font-size="10.00" fill="#ffffff">0.68%</text>
<text text-anchor="middle" x="513" y="-689" font-family="Arial" font-size="10.00" fill="#ffffff">(0.13%)</text>
<text text-anchor="middle" x="513" y="-677.501" font-family="Arial" font-size="10.00" fill="#ffffff">1</text>
</g>
<!-- 69&#45;&gt;26 -->
<g id="edge21" class="edge"><title>69&#45;&gt;26</title>
<path fill="none" stroke="#0d1074" stroke-width="0.5" d="M513,-767.816C513,-756 513,-741.985 513,-729.772"/>
<polygon fill="#0d1074" stroke="#0d1074" points="514.225,-729.544 513,-726.044 511.775,-729.544 514.225,-729.544"/>
<text text-anchor="middle" x="527.177" y="-748.499" font-family="Arial" font-size="10.00" fill="#0d1074">0.68%</text>
<text text-anchor="middle" x="527.177" y="-737" font-family="Arial" font-size="10.00" fill="#0d1074">1</text>
</g>
<!-- 7 -->
<g id="node9" class="node"><title>7</title>
<path fill="#0d1174" stroke="#0d1174" d="M649.261,-1014C649.261,-1014 622.739,-1014 622.739,-1014 616.739,-1014 610.739,-1008 610.739,-1002 610.739,-1002 610.739,-972.004 610.739,-972.004 610.739,-966.004 616.739,-960.004 622.739,-960.004 622.739,-960.004 649.261,-960.004 649.261,-960.004 655.261,-960.004 661.261,-966.004 661.261,-972.004 661.261,-972.004 661.261,-1002 661.261,-1002 661.261,-1008 655.261,-1014 649.261,-1014"/>
<text text-anchor="middle" x="636" y="-999.998" font-family="Arial" font-size="10.00" fill="#ffffff">fib:6:fib</text>
<text text-anchor="middle" x="636" y="-988.499" font-family="Arial" font-size="10.00" fill="#ffffff">1.03%</text>
<text text-anchor="middle" x="636" y="-977" font-family="Arial" font-size="10.00" fill="#ffffff">(0.33%)</text>
<text text-anchor="middle" x="636" y="-965.501" font-family="Arial" font-size="10.00" fill="#ffffff">1</text>
</g>
<!-- 21 -->
<g id="node10" class="node"><title>21</title>
<path fill="#0d1074" stroke="#0d1074" d="M687.366,-917.996C687.366,-917.996 606.634,-917.996 606.634,-917.996 600.634,-917.996 594.634,-911.996 594.634,-905.996 594.634,-905.996 594.634,-876.004 594.634,-876.004 594.634,-870.004 600.634,-864.004 606.634,-864.004 606.634,-864.004 687.366,-864.004 687.366,-864.004 693.366,-864.004 699.366,-870.004 699.366,-876.004 699.366,-876.004 699.366,-905.996 699.366,-905.996 699.366,-911.996 693.366,-917.996 687.366,-917.996"/>
<text text-anchor="middle" x="647" y="-903.998" font-family="Arial" font-size="10.00" fill="#ffffff">__init__:1110:debug</text>
<text text-anchor="middle" x="647" y="-892.499" font-family="Arial" font-size="10.00" fill="#ffffff">0.70%</text>
<text text-anchor="middle" x="647" y="-881" font-family="Arial" font-size="10.00" fill="#ffffff">(0.17%)</text>
<text text-anchor="middle" x="647" y="-869.501" font-family="Arial" font-size="10.00" fill="#ffffff">31</text>
</g>
<!-- 7&#45;&gt;21 -->
<g id="edge7" class="edge"><title>7&#45;&gt;21</title>
<path fill="none" stroke="#0d1074" stroke-width="0.5" d="M639.064,-959.816C640.447,-948 642.087,-933.985 643.516,-921.772"/>
<polygon fill="#0d1074" stroke="#0d1074" points="644.762,-921.663 643.952,-918.044 642.329,-921.378 644.762,-921.663"/>
<text text-anchor="middle" x="657.177" y="-940.499" font-family="Arial" font-size="10.00" fill="#0d1074">0.70%</text>
<text text-anchor="middle" x="657.177" y="-929" font-family="Arial" font-size="10.00" fill="#0d1074">31</text>
</g>
<!-- 20 -->
<g id="node16" class="node"><title>20</title>
<path fill="#0d0f73" stroke="#0d0f73" d="M704.316,-821.996C704.316,-821.996 591.684,-821.996 591.684,-821.996 585.684,-821.996 579.684,-815.996 579.684,-809.996 579.684,-809.996 579.684,-780.004 579.684,-780.004 579.684,-774.004 585.684,-768.004 591.684,-768.004 591.684,-768.004 704.316,-768.004 704.316,-768.004 710.316,-768.004 716.316,-774.004 716.316,-780.004 716.316,-780.004 716.316,-809.996 716.316,-809.996 716.316,-815.996 710.316,-821.996 704.316,-821.996"/>
<text text-anchor="middle" x="648" y="-807.998" font-family="Arial" font-size="10.00" fill="#ffffff">__init__:1324:isEnabledFor</text>
<text text-anchor="middle" x="648" y="-796.499" font-family="Arial" font-size="10.00" fill="#ffffff">0.53%</text>
<text text-anchor="middle" x="648" y="-785" font-family="Arial" font-size="10.00" fill="#ffffff">(0.24%)</text>
<text text-anchor="middle" x="648" y="-773.501" font-family="Arial" font-size="10.00" fill="#ffffff">31</text>
</g>
<!-- 21&#45;&gt;20 -->
<g id="edge13" class="edge"><title>21&#45;&gt;20</title>
<path fill="none" stroke="#0d0f73" stroke-width="0.5" d="M647.279,-863.816C647.404,-852 647.553,-837.985 647.683,-825.772"/>
<polygon fill="#0d0f73" stroke="#0d0f73" points="648.911,-825.557 647.723,-822.044 646.461,-825.531 648.911,-825.557"/>
<text text-anchor="middle" x="662.177" y="-844.499" font-family="Arial" font-size="10.00" fill="#0d0f73">0.53%</text>
<text text-anchor="middle" x="662.177" y="-833" font-family="Arial" font-size="10.00" fill="#0d0f73">31</text>
</g>
<!-- 8 -->
<g id="node11" class="node"><title>8</title>
<path fill="#ff0000" stroke="#ff0000" d="M565.118,-1110C565.118,-1110 506.882,-1110 506.882,-1110 500.882,-1110 494.882,-1104 494.882,-1098 494.882,-1098 494.882,-1068 494.882,-1068 494.882,-1062 500.882,-1056 506.882,-1056 506.882,-1056 565.118,-1056 565.118,-1056 571.118,-1056 577.118,-1062 577.118,-1068 577.118,-1068 577.118,-1098 577.118,-1098 577.118,-1104 571.118,-1110 565.118,-1110"/>
<text text-anchor="middle" x="536" y="-1096" font-family="Arial" font-size="10.00" fill="#ffffff">fib:1:&lt;module&gt;</text>
<text text-anchor="middle" x="536" y="-1084.5" font-family="Arial" font-size="10.00" fill="#ffffff">100.00%</text>
<text text-anchor="middle" x="536" y="-1073" font-family="Arial" font-size="10.00" fill="#ffffff">(8.14%)</text>
<text text-anchor="middle" x="536" y="-1061.5" font-family="Arial" font-size="10.00" fill="#ffffff">1</text>
</g>
<!-- 8&#45;&gt;1 -->
<g id="edge8" class="edge"><title>8&#45;&gt;1</title>
<path fill="none" stroke="#ef6603" stroke-width="3.58" d="M499.231,-1055.82C483.497,-1044.61 464.986,-1031.43 448.488,-1019.68"/>
<polygon fill="#ef6603" stroke="#ef6603" points="450.239,-1016.85 440.572,-1014.04 446.382,-1022.26 450.239,-1016.85"/>
<text text-anchor="middle" x="502.958" y="-1036.5" font-family="Arial" font-size="10.00" fill="#ef6603">89.53%</text>
<text text-anchor="middle" x="502.958" y="-1025" font-family="Arial" font-size="10.00" fill="#ef6603">1</text>
</g>
<!-- 10 -->
<g id="node12" class="node"><title>10</title>
<path fill="#0d1174" stroke="#0d1174" d="M589.312,-1014C589.312,-1014 482.688,-1014 482.688,-1014 476.688,-1014 470.688,-1008 470.688,-1002 470.688,-1002 470.688,-972.004 470.688,-972.004 470.688,-966.004 476.688,-960.004 482.688,-960.004 482.688,-960.004 589.312,-960.004 589.312,-960.004 595.312,-960.004 601.312,-966.004 601.312,-972.004 601.312,-972.004 601.312,-1002 601.312,-1002 601.312,-1008 595.312,-1014 589.312,-1014"/>
<text text-anchor="middle" x="536" y="-999.998" font-family="Arial" font-size="10.00" fill="#ffffff">__init__:1471:basicConfig</text>
<text text-anchor="middle" x="536" y="-988.499" font-family="Arial" font-size="10.00" fill="#ffffff">0.97%</text>
<text text-anchor="middle" x="536" y="-977" font-family="Arial" font-size="10.00" fill="#ffffff">(0.13%)</text>
<text text-anchor="middle" x="536" y="-965.501" font-family="Arial" font-size="10.00" fill="#ffffff">1</text>
</g>
<!-- 8&#45;&gt;10 -->
<g id="edge9" class="edge"><title>8&#45;&gt;10</title>
<path fill="none" stroke="#0d1174" stroke-width="0.5" d="M536,-1055.82C536,-1044 536,-1029.99 536,-1017.77"/>
<polygon fill="#0d1174" stroke="#0d1174" points="537.225,-1017.54 536,-1014.04 534.775,-1017.54 537.225,-1017.54"/>
<text text-anchor="middle" x="550.177" y="-1036.5" font-family="Arial" font-size="10.00" fill="#0d1174">0.97%</text>
<text text-anchor="middle" x="550.177" y="-1025" font-family="Arial" font-size="10.00" fill="#0d1174">1</text>
</g>
<!-- 8&#45;&gt;7 -->
<g id="edge10" class="edge"><title>8&#45;&gt;7</title>
<path fill="none" stroke="#0d1174" stroke-width="0.5" d="M563.856,-1055.82C577.617,-1042.88 594.183,-1027.31 607.969,-1014.35"/>
<polygon fill="#0d1174" stroke="#0d1174" points="608.976,-1015.08 610.687,-1011.79 607.298,-1013.3 608.976,-1015.08"/>
<text text-anchor="middle" x="612.177" y="-1036.5" font-family="Arial" font-size="10.00" fill="#0d1174">1.03%</text>
<text text-anchor="middle" x="612.177" y="-1025" font-family="Arial" font-size="10.00" fill="#0d1174">1</text>
</g>
<!-- 17 -->
<g id="node13" class="node"><title>17</title>
<path fill="#0d1375" stroke="#0d1375" d="M409.463,-245.996C409.463,-245.996 320.537,-245.996 320.537,-245.996 314.537,-245.996 308.537,-239.996 308.537,-233.996 308.537,-233.996 308.537,-204.004 308.537,-204.004 308.537,-198.004 314.537,-192.004 320.537,-192.004 320.537,-192.004 409.463,-192.004 409.463,-192.004 415.463,-192.004 421.463,-198.004 421.463,-204.004 421.463,-204.004 421.463,-233.996 421.463,-233.996 421.463,-239.996 415.463,-245.996 409.463,-245.996"/>
<text text-anchor="middle" x="365" y="-231.998" font-family="Arial" font-size="10.00" fill="#ffffff">sre_parse:379:_parse</text>
<text text-anchor="middle" x="365" y="-220.499" font-family="Arial" font-size="10.00" fill="#ffffff">1.52%</text>
<text text-anchor="middle" x="365" y="-209" font-family="Arial" font-size="10.00" fill="#ffffff">(0.53%)</text>
<text text-anchor="middle" x="365" y="-197.501" font-family="Arial" font-size="10.00" fill="#ffffff">2</text>
</g>
<!-- 75 -->
<g id="node14" class="node"><title>75</title>
<path fill="#0d1074" stroke="#0d1074" d="M400.959,-149.996C400.959,-149.996 329.041,-149.996 329.041,-149.996 323.041,-149.996 317.041,-143.996 317.041,-137.996 317.041,-137.996 317.041,-108.004 317.041,-108.004 317.041,-102.004 323.041,-96.0039 329.041,-96.0039 329.041,-96.0039 400.959,-96.0039 400.959,-96.0039 406.959,-96.0039 412.959,-102.004 412.959,-108.004 412.959,-108.004 412.959,-137.996 412.959,-137.996 412.959,-143.996 406.959,-149.996 400.959,-149.996"/>
<text text-anchor="middle" x="365" y="-135.998" font-family="Arial" font-size="10.00" fill="#ffffff">sre_parse:201:get</text>
<text text-anchor="middle" x="365" y="-124.499" font-family="Arial" font-size="10.00" fill="#ffffff">0.73%</text>
<text text-anchor="middle" x="365" y="-113" font-family="Arial" font-size="10.00" fill="#ffffff">(0.22%)</text>
<text text-anchor="middle" x="365" y="-101.501" font-family="Arial" font-size="10.00" fill="#ffffff">26</text>
</g>
<!-- 17&#45;&gt;75 -->
<g id="edge11" class="edge"><title>17&#45;&gt;75</title>
<path fill="none" stroke="#0d1074" stroke-width="0.5" d="M365,-191.816C365,-180 365,-165.985 365,-153.772"/>
<polygon fill="#0d1074" stroke="#0d1074" points="366.225,-153.544 365,-150.044 363.775,-153.544 366.225,-153.544"/>
<text text-anchor="middle" x="379.177" y="-172.499" font-family="Arial" font-size="10.00" fill="#0d1074">0.70%</text>
<text text-anchor="middle" x="379.177" y="-161" font-family="Arial" font-size="10.00" fill="#0d1074">24</text>
</g>
<!-- 74 -->
<g id="node24" class="node"><title>74</title>
<path fill="#0d0f74" stroke="#0d0f74" d="M409.051,-53.9961C409.051,-53.9961 320.949,-53.9961 320.949,-53.9961 314.949,-53.9961 308.949,-47.9961 308.949,-41.9961 308.949,-41.9961 308.949,-12.0039 308.949,-12.0039 308.949,-6.00391 314.949,-0.00390611 320.949,-0.00390611 320.949,-0.00390611 409.051,-0.00390611 409.051,-0.00390611 415.051,-0.00390611 421.051,-6.00391 421.051,-12.0039 421.051,-12.0039 421.051,-41.9961 421.051,-41.9961 421.051,-47.9961 415.051,-53.9961 409.051,-53.9961"/>
<text text-anchor="middle" x="365" y="-39.998" font-family="Arial" font-size="10.00" fill="#ffffff">sre_parse:182:__next</text>
<text text-anchor="middle" x="365" y="-28.499" font-family="Arial" font-size="10.00" fill="#ffffff">0.61%</text>
<text text-anchor="middle" x="365" y="-17" font-family="Arial" font-size="10.00" fill="#ffffff">(0.46%)</text>
<text text-anchor="middle" x="365" y="-5.50098" font-family="Arial" font-size="10.00" fill="#ffffff">28</text>
</g>
<!-- 75&#45;&gt;74 -->
<g id="edge23" class="edge"><title>75&#45;&gt;74</title>
<path fill="none" stroke="#0d0f73" stroke-width="0.5" d="M365,-95.8158C365,-84.0003 365,-69.9854 365,-57.7719"/>
<polygon fill="#0d0f73" stroke="#0d0f73" points="366.225,-57.5438 365,-54.0438 363.775,-57.5439 366.225,-57.5438"/>
<text text-anchor="middle" x="379.177" y="-76.499" font-family="Arial" font-size="10.00" fill="#0d0f73">0.51%</text>
<text text-anchor="middle" x="379.177" y="-65" font-family="Arial" font-size="10.00" fill="#0d0f73">26</text>
</g>
<!-- 88 -->
<g id="node23" class="node"><title>88</title>
<path fill="#0d1e78" stroke="#0d1e78" d="M423.291,-629.996C423.291,-629.996 350.709,-629.996 350.709,-629.996 344.709,-629.996 338.709,-623.996 338.709,-617.996 338.709,-617.996 338.709,-588.004 338.709,-588.004 338.709,-582.004 344.709,-576.004 350.709,-576.004 350.709,-576.004 423.291,-576.004 423.291,-576.004 429.291,-576.004 435.291,-582.004 435.291,-588.004 435.291,-588.004 435.291,-617.996 435.291,-617.996 435.291,-623.996 429.291,-629.996 423.291,-629.996"/>
<text text-anchor="middle" x="387" y="-615.998" font-family="Arial" font-size="10.00" fill="#ffffff">bisect:1:&lt;module&gt;</text>
<text text-anchor="middle" x="387" y="-604.499" font-family="Arial" font-size="10.00" fill="#ffffff">3.93%</text>
<text text-anchor="middle" x="387" y="-593" font-family="Arial" font-size="10.00" fill="#ffffff">(3.93%)</text>
<text text-anchor="middle" x="387" y="-581.501" font-family="Arial" font-size="10.00" fill="#ffffff">1</text>
</g>
<!-- 73&#45;&gt;88 -->
<g id="edge22" class="edge"><title>73&#45;&gt;88</title>
<path fill="none" stroke="#0d1e78" stroke-width="0.5" d="M387,-671.816C387,-660 387,-645.985 387,-633.772"/>
<polygon fill="#0d1e78" stroke="#0d1e78" points="388.225,-633.544 387,-630.044 385.775,-633.544 388.225,-633.544"/>
<text text-anchor="middle" x="401.177" y="-652.499" font-family="Arial" font-size="10.00" fill="#0d1e78">3.93%</text>
<text text-anchor="middle" x="401.177" y="-641" font-family="Arial" font-size="10.00" fill="#0d1e78">1</text>
</g>
<!-- 32 -->
<g id="node18" class="node"><title>32</title>
<path fill="#0d1f78" stroke="#0d1f78" d="M284.364,-629.996C284.364,-629.996 221.636,-629.996 221.636,-629.996 215.636,-629.996 209.636,-623.996 209.636,-617.996 209.636,-617.996 209.636,-588.004 209.636,-588.004 209.636,-582.004 215.636,-576.004 221.636,-576.004 221.636,-576.004 284.364,-576.004 284.364,-576.004 290.364,-576.004 296.364,-582.004 296.364,-588.004 296.364,-588.004 296.364,-617.996 296.364,-617.996 296.364,-623.996 290.364,-629.996 284.364,-629.996"/>
<text text-anchor="middle" x="253" y="-615.998" font-family="Arial" font-size="10.00" fill="#ffffff">re:228:_compile</text>
<text text-anchor="middle" x="253" y="-604.499" font-family="Arial" font-size="10.00" fill="#ffffff">4.19%</text>
<text text-anchor="middle" x="253" y="-593" font-family="Arial" font-size="10.00" fill="#ffffff">(0.26%)</text>
<text text-anchor="middle" x="253" y="-581.501" font-family="Arial" font-size="10.00" fill="#ffffff">2</text>
</g>
<!-- 53 -->
<g id="node19" class="node"><title>53</title>
<path fill="#0d1d78" stroke="#0d1d78" d="M303.959,-533.996C303.959,-533.996 202.041,-533.996 202.041,-533.996 196.041,-533.996 190.041,-527.996 190.041,-521.996 190.041,-521.996 190.041,-492.004 190.041,-492.004 190.041,-486.004 196.041,-480.004 202.041,-480.004 202.041,-480.004 303.959,-480.004 303.959,-480.004 309.959,-480.004 315.959,-486.004 315.959,-492.004 315.959,-492.004 315.959,-521.996 315.959,-521.996 315.959,-527.996 309.959,-533.996 303.959,-533.996"/>
<text text-anchor="middle" x="253" y="-519.998" font-family="Arial" font-size="10.00" fill="#ffffff">sre_compile:495:compile</text>
<text text-anchor="middle" x="253" y="-508.499" font-family="Arial" font-size="10.00" fill="#ffffff">3.89%</text>
<text text-anchor="middle" x="253" y="-497" font-family="Arial" font-size="10.00" fill="#ffffff">(0.20%)</text>
<text text-anchor="middle" x="253" y="-485.501" font-family="Arial" font-size="10.00" fill="#ffffff">2</text>
</g>
<!-- 32&#45;&gt;53 -->
<g id="edge14" class="edge"><title>32&#45;&gt;53</title>
<path fill="none" stroke="#0d1d78" stroke-width="0.5" d="M253,-575.816C253,-564 253,-549.985 253,-537.772"/>
<polygon fill="#0d1d78" stroke="#0d1d78" points="254.225,-537.544 253,-534.044 251.775,-537.544 254.225,-537.544"/>
<text text-anchor="middle" x="267.177" y="-556.499" font-family="Arial" font-size="10.00" fill="#0d1d78">3.89%</text>
<text text-anchor="middle" x="267.177" y="-545" font-family="Arial" font-size="10.00" fill="#0d1d78">2</text>
</g>
<!-- 53&#45;&gt;3 -->
<g id="edge18" class="edge"><title>53&#45;&gt;3</title>
<path fill="none" stroke="#0d1375" stroke-width="0.5" d="M241.579,-479.816C236.381,-467.898 230.207,-453.744 224.848,-441.456"/>
<polygon fill="#0d1375" stroke="#0d1375" points="225.882,-440.762 223.36,-438.044 223.636,-441.742 225.882,-440.762"/>
<text text-anchor="middle" x="252.177" y="-460.499" font-family="Arial" font-size="10.00" fill="#0d1375">1.62%</text>
<text text-anchor="middle" x="252.177" y="-449" font-family="Arial" font-size="10.00" fill="#0d1375">2</text>
</g>
<!-- 35 -->
<g id="node22" class="node"><title>35</title>
<path fill="#0d1575" stroke="#0d1575" d="M391.294,-437.996C391.294,-437.996 308.706,-437.996 308.706,-437.996 302.706,-437.996 296.706,-431.996 296.706,-425.996 296.706,-425.996 296.706,-396.004 296.706,-396.004 296.706,-390.004 302.706,-384.004 308.706,-384.004 308.706,-384.004 391.294,-384.004 391.294,-384.004 397.294,-384.004 403.294,-390.004 403.294,-396.004 403.294,-396.004 403.294,-425.996 403.294,-425.996 403.294,-431.996 397.294,-437.996 391.294,-437.996"/>
<text text-anchor="middle" x="350" y="-423.998" font-family="Arial" font-size="10.00" fill="#ffffff">sre_parse:663:parse</text>
<text text-anchor="middle" x="350" y="-412.499" font-family="Arial" font-size="10.00" fill="#ffffff">2.00%</text>
<text text-anchor="middle" x="350" y="-401" font-family="Arial" font-size="10.00" fill="#ffffff">(0.20%)</text>
<text text-anchor="middle" x="350" y="-389.501" font-family="Arial" font-size="10.00" fill="#ffffff">2</text>
</g>
<!-- 53&#45;&gt;35 -->
<g id="edge19" class="edge"><title>53&#45;&gt;35</title>
<path fill="none" stroke="#0d1575" stroke-width="0.5" d="M280.02,-479.816C292.633,-467.593 307.675,-453.016 320.575,-440.515"/>
<polygon fill="#0d1575" stroke="#0d1575" points="321.464,-441.359 323.125,-438.044 319.759,-439.6 321.464,-441.359"/>
<text text-anchor="middle" x="328.177" y="-460.499" font-family="Arial" font-size="10.00" fill="#0d1575">2.00%</text>
<text text-anchor="middle" x="328.177" y="-449" font-family="Arial" font-size="10.00" fill="#0d1575">2</text>
</g>
<!-- 33&#45;&gt;32 -->
<g id="edge15" class="edge"><title>33&#45;&gt;32</title>
<path fill="none" stroke="#0d1f78" stroke-width="0.5" d="M253,-671.816C253,-660 253,-645.985 253,-633.772"/>
<polygon fill="#0d1f78" stroke="#0d1f78" points="254.225,-633.544 253,-630.044 251.775,-633.544 254.225,-633.544"/>
<text text-anchor="middle" x="267.177" y="-652.499" font-family="Arial" font-size="10.00" fill="#0d1f78">4.19%</text>
<text text-anchor="middle" x="267.177" y="-641" font-family="Arial" font-size="10.00" fill="#0d1f78">2</text>
</g>
<!-- 34 -->
<g id="node21" class="node"><title>34</title>
<path fill="#0d1475" stroke="#0d1475" d="M420.227,-341.996C420.227,-341.996 309.773,-341.996 309.773,-341.996 303.773,-341.996 297.773,-335.996 297.773,-329.996 297.773,-329.996 297.773,-300.004 297.773,-300.004 297.773,-294.004 303.773,-288.004 309.773,-288.004 309.773,-288.004 420.227,-288.004 420.227,-288.004 426.227,-288.004 432.227,-294.004 432.227,-300.004 432.227,-300.004 432.227,-329.996 432.227,-329.996 432.227,-335.996 426.227,-341.996 420.227,-341.996"/>
<text text-anchor="middle" x="365" y="-327.998" font-family="Arial" font-size="10.00" fill="#ffffff">sre_parse:301:_parse_sub</text>
<text text-anchor="middle" x="365" y="-316.499" font-family="Arial" font-size="10.00" fill="#ffffff">1.63%</text>
<text text-anchor="middle" x="365" y="-305" font-family="Arial" font-size="10.00" fill="#ffffff">(0.09%)</text>
<text text-anchor="middle" x="365" y="-293.501" font-family="Arial" font-size="10.00" fill="#ffffff">2</text>
</g>
<!-- 34&#45;&gt;17 -->
<g id="edge16" class="edge"><title>34&#45;&gt;17</title>
<path fill="none" stroke="#0d1375" stroke-width="0.5" d="M365,-287.816C365,-276 365,-261.985 365,-249.772"/>
<polygon fill="#0d1375" stroke="#0d1375" points="366.225,-249.544 365,-246.044 363.775,-249.544 366.225,-249.544"/>
<text text-anchor="middle" x="379.177" y="-268.499" font-family="Arial" font-size="10.00" fill="#0d1375">1.52%</text>
<text text-anchor="middle" x="379.177" y="-257" font-family="Arial" font-size="10.00" fill="#0d1375">2</text>
</g>
<!-- 35&#45;&gt;34 -->
<g id="edge17" class="edge"><title>35&#45;&gt;34</title>
<path fill="none" stroke="#0d1475" stroke-width="0.5" d="M354.178,-383.816C356.064,-372 358.3,-357.985 360.249,-345.772"/>
<polygon fill="#0d1475" stroke="#0d1475" points="361.502,-345.693 360.844,-342.044 359.083,-345.307 361.502,-345.693"/>
<text text-anchor="middle" x="374.177" y="-364.499" font-family="Arial" font-size="10.00" fill="#0d1475">1.63%</text>
<text text-anchor="middle" x="374.177" y="-353" font-family="Arial" font-size="10.00" fill="#0d1475">2</text>
</g>
</g>
</svg>
