<?xml version="1.0" encoding="UTF-8" standalone="no"?>
<!DOCTYPE svg PUBLIC "-//W3C//DTD SVG 1.1//EN"
 "http://www.w3.org/Graphics/SVG/1.1/DTD/svg11.dtd">
<!-- Generated by graphviz version 2.30.1 (20130315.0747)
 -->
<!-- Title: %3 Pages: 1 -->
<svg width="142pt" height="254pt"
 viewBox="0.00 0.00 142.00 254.00" xmlns="http://www.w3.org/2000/svg" xmlns:xlink="http://www.w3.org/1999/xlink">
<g id="graph0" class="graph" transform="scale(1 1) rotate(0) translate(4 250)">
<title>%3</title>
<polygon fill="white" stroke="white" points="-4,5 -4,-250 139,-250 139,5 -4,5"/>
<!-- 0 -->
<g id="node1" class="node"><title>0</title>
<path fill="#ff0000" stroke="#ff0000" d="M122.097,-245.996C122.097,-245.996 11.9026,-245.996 11.9026,-245.996 5.90256,-245.996 -0.0974436,-239.996 -0.0974436,-233.996 -0.0974436,-233.996 -0.0974436,-204.004 -0.0974436,-204.004 -0.0974436,-198.004 5.90256,-192.004 11.9026,-192.004 11.9026,-192.004 122.097,-192.004 122.097,-192.004 128.097,-192.004 134.097,-198.004 134.097,-204.004 134.097,-204.004 134.097,-233.996 134.097,-233.996 134.097,-239.996 128.097,-245.996 122.097,-245.996"/>
<text text-anchor="middle" x="67" y="-231.998" font-family="Arial" font-size="10.00" fill="#ffffff">~:0:&lt;built&#45;in method exec&gt;</text>
<text text-anchor="middle" x="67" y="-220.499" font-family="Arial" font-size="10.00" fill="#ffffff">100.00%</text>
<text text-anchor="middle" x="67" y="-209" font-family="Arial" font-size="10.00" fill="#ffffff">(14.29%)</text>
<text text-anchor="middle" x="67" y="-197.501" font-family="Arial" font-size="10.00" fill="#ffffff">1</text>
</g>
<!-- 2 -->
<g id="node2" class="node"><title>2</title>
<path fill="#e98703" stroke="#e98703" d="M96.118,-149.996C96.118,-149.996 37.882,-149.996 37.882,-149.996 31.882,-149.996 25.882,-143.996 25.882,-137.996 25.882,-137.996 25.882,-108.004 25.882,-108.004 25.882,-102.004 31.882,-96.0039 37.882,-96.0039 37.882,-96.0039 96.118,-96.0039 96.118,-96.0039 102.118,-96.0039 108.118,-102.004 108.118,-108.004 108.118,-108.004 108.118,-137.996 108.118,-137.996 108.118,-143.996 102.118,-149.996 96.118,-149.996"/>
<text text-anchor="middle" x="67" y="-135.998" font-family="Arial" font-size="10.00" fill="#ffffff">fib:6:&lt;module&gt;</text>
<text text-anchor="middle" x="67" y="-124.499" font-family="Arial" font-size="10.00" fill="#ffffff">85.71%</text>
<text text-anchor="middle" x="67" y="-113" font-family="Arial" font-size="10.00" fill="#ffffff">(42.86%)</text>
<text text-anchor="middle" x="67" y="-101.501" font-family="Arial" font-size="10.00" fill="#ffffff">1</text>
</g>
<!-- 0&#45;&gt;2 -->
<g id="edge1" class="edge"><title>0&#45;&gt;2</title>
<path fill="none" stroke="#e98703" stroke-width="3.43" d="M67,-191.816C67,-181.834 67,-170.282 67,-159.573"/>
<polygon fill="#e98703" stroke="#e98703" points="70.2551,-159.344 67,-150.044 63.7451,-159.344 70.2551,-159.344"/>
<text text-anchor="middle" x="83.958" y="-172.499" font-family="Arial" font-size="10.00" fill="#e98703">85.71%</text>
<text text-anchor="middle" x="83.958" y="-161" font-family="Arial" font-size="10.00" fill="#e98703">1</text>
</g>
<!-- 3 -->
<g id="node3" class="node"><title>3</title>
<path fill="#0aac39" stroke="#0aac39" d="M82.9348,-53.9961C82.9348,-53.9961 51.0652,-53.9961 51.0652,-53.9961 45.0652,-53.9961 39.0652,-47.9961 39.0652,-41.9961 39.0652,-41.9961 39.0652,-12.0039 39.0652,-12.0039 39.0652,-6.00391 45.0652,-0.00390611 51.0652,-0.00390611 51.0652,-0.00390611 82.9348,-0.00390611 82.9348,-0.00390611 88.9348,-0.00390611 94.9348,-6.00391 94.9348,-12.0039 94.9348,-12.0039 94.9348,-41.9961 94.9348,-41.9961 94.9348,-47.9961 88.9348,-53.9961 82.9348,-53.9961"/>
<text text-anchor="middle" x="67" y="-39.998" font-family="Arial" font-size="10.00" fill="#ffffff">fib:6:fib</text>
<text text-anchor="middle" x="67" y="-28.499" font-family="Arial" font-size="10.00" fill="#ffffff">42.86%</text>
<text text-anchor="middle" x="67" y="-17" font-family="Arial" font-size="10.00" fill="#ffffff">(42.86%)</text>
<text text-anchor="middle" x="67" y="-5.50098" font-family="Arial" font-size="10.00" fill="#ffffff">1</text>
</g>
<!-- 2&#45;&gt;3 -->
<g id="edge2" class="edge"><title>2&#45;&gt;3</title>
<path fill="none" stroke="#0aac39" stroke-width="1.71" d="M67,-95.8158C67,-84.917 67,-72.1469 67,-60.6454"/>
<polygon fill="#0aac39" stroke="#0aac39" points="69.2751,-60.5438 67,-54.0438 64.7251,-60.5439 69.2751,-60.5438"/>
<text text-anchor="middle" x="83.958" y="-76.499" font-family="Arial" font-size="10.00" fill="#0aac39">42.86%</text>
<text text-anchor="middle" x="83.958" y="-65" font-family="Arial" font-size="10.00" fill="#0aac39">1</text>
</g>
</g>
</svg>
