<?xml version="1.0" encoding="UTF-8" standalone="no"?>
<!DOCTYPE svg PUBLIC "-//W3C//DTD SVG 1.1//EN"
 "http://www.w3.org/Graphics/SVG/1.1/DTD/svg11.dtd">
<!-- Generated by graphviz version 2.30.1 (20130315.0747)
 -->
<!-- Title: %3 Pages: 1 -->
<svg width="498pt" height="926pt"
 viewBox="0.00 0.00 498.00 926.00" xmlns="http://www.w3.org/2000/svg" xmlns:xlink="http://www.w3.org/1999/xlink">
<g id="graph0" class="graph" transform="scale(1 1) rotate(0) translate(4 922)">
<title>%3</title>
<polygon fill="white" stroke="white" points="-4,5 -4,-922 495,-922 495,5 -4,5"/>
<!-- 1 -->
<g id="node1" class="node"><title>1</title>
<path fill="#d1d806" stroke="#d1d806" d="M227.14,-821.996C227.14,-821.996 138.86,-821.996 138.86,-821.996 132.86,-821.996 126.86,-815.996 126.86,-809.996 126.86,-809.996 126.86,-780.004 126.86,-780.004 126.86,-774.004 132.86,-768.004 138.86,-768.004 138.86,-768.004 227.14,-768.004 227.14,-768.004 233.14,-768.004 239.14,-774.004 239.14,-780.004 239.14,-780.004 239.14,-809.996 239.14,-809.996 239.14,-815.996 233.14,-821.996 227.14,-821.996"/>
<text text-anchor="middle" x="183" y="-807.998" font-family="Arial" font-size="10.00" fill="#ffffff">__init__:24:&lt;module&gt;</text>
<text text-anchor="middle" x="183" y="-796.499" font-family="Arial" font-size="10.00" fill="#ffffff">74.12%</text>
<text text-anchor="middle" x="183" y="-785" font-family="Arial" font-size="10.00" fill="#ffffff">(46.20%)</text>
<text text-anchor="middle" x="183" y="-773.501" font-family="Arial" font-size="10.00" fill="#ffffff">1</text>
</g>
<!-- 6 -->
<g id="node2" class="node"><title>6</title>
<path fill="#0c968a" stroke="#0c968a" d="M227.471,-725.996C227.471,-725.996 138.529,-725.996 138.529,-725.996 132.529,-725.996 126.529,-719.996 126.529,-713.996 126.529,-713.996 126.529,-684.004 126.529,-684.004 126.529,-678.004 132.529,-672.004 138.529,-672.004 138.529,-672.004 227.471,-672.004 227.471,-672.004 233.471,-672.004 239.471,-678.004 239.471,-684.004 239.471,-684.004 239.471,-713.996 239.471,-713.996 239.471,-719.996 233.471,-725.996 227.471,-725.996"/>
<text text-anchor="middle" x="183" y="-711.998" font-family="Arial" font-size="10.00" fill="#ffffff">threading:1:&lt;module&gt;</text>
<text text-anchor="middle" x="183" y="-700.499" font-family="Arial" font-size="10.00" fill="#ffffff">27.21%</text>
<text text-anchor="middle" x="183" y="-689" font-family="Arial" font-size="10.00" fill="#ffffff">(5.23%)</text>
<text text-anchor="middle" x="183" y="-677.501" font-family="Arial" font-size="10.00" fill="#ffffff">1</text>
</g>
<!-- 1&#45;&gt;6 -->
<g id="edge1" class="edge"><title>1&#45;&gt;6</title>
<path fill="none" stroke="#0c968a" stroke-width="1.09" d="M183,-767.816C183,-756.51 183,-743.19 183,-731.361"/>
<polygon fill="#0c968a" stroke="#0c968a" points="184.82,-731.244 183,-726.044 181.18,-731.244 184.82,-731.244"/>
<text text-anchor="middle" x="199.958" y="-748.499" font-family="Arial" font-size="10.00" fill="#0c968a">27.21%</text>
<text text-anchor="middle" x="199.958" y="-737" font-family="Arial" font-size="10.00" fill="#0c968a">1</text>
</g>
<!-- 36 -->
<g id="node5" class="node"><title>36</title>
<path fill="#0d0f74" stroke="#0d0f74" d="M102.227,-629.996C102.227,-629.996 11.7726,-629.996 11.7726,-629.996 5.77264,-629.996 -0.227363,-623.996 -0.227363,-617.996 -0.227363,-617.996 -0.227363,-588.004 -0.227363,-588.004 -0.227363,-582.004 5.77264,-576.004 11.7726,-576.004 11.7726,-576.004 102.227,-576.004 102.227,-576.004 108.227,-576.004 114.227,-582.004 114.227,-588.004 114.227,-588.004 114.227,-617.996 114.227,-617.996 114.227,-623.996 108.227,-629.996 102.227,-629.996"/>
<text text-anchor="middle" x="57" y="-615.998" font-family="Arial" font-size="10.00" fill="#ffffff">threading:764:__init__</text>
<text text-anchor="middle" x="57" y="-604.499" font-family="Arial" font-size="10.00" fill="#ffffff">0.64%</text>
<text text-anchor="middle" x="57" y="-593" font-family="Arial" font-size="10.00" fill="#ffffff">(0.06%)</text>
<text text-anchor="middle" x="57" y="-581.501" font-family="Arial" font-size="10.00" fill="#ffffff">1</text>
</g>
<!-- 6&#45;&gt;36 -->
<g id="edge3" class="edge"><title>6&#45;&gt;36</title>
<path fill="none" stroke="#0d0f74" stroke-width="0.5" d="M147.902,-671.816C131.382,-659.491 111.653,-644.773 94.804,-632.203"/>
<polygon fill="#0d0f74" stroke="#0d0f74" points="95.4477,-631.155 91.9098,-630.044 93.9826,-633.119 95.4477,-631.155"/>
<text text-anchor="middle" x="149.177" y="-652.499" font-family="Arial" font-size="10.00" fill="#0d0f74">0.64%</text>
<text text-anchor="middle" x="149.177" y="-641" font-family="Arial" font-size="10.00" fill="#0d0f74">1</text>
</g>
<!-- 18 -->
<g id="node6" class="node"><title>18</title>
<path fill="#0c688a" stroke="#0c688a" d="M230.214,-629.996C230.214,-629.996 135.786,-629.996 135.786,-629.996 129.786,-629.996 123.786,-623.996 123.786,-617.996 123.786,-617.996 123.786,-588.004 123.786,-588.004 123.786,-582.004 129.786,-576.004 135.786,-576.004 135.786,-576.004 230.214,-576.004 230.214,-576.004 236.214,-576.004 242.214,-582.004 242.214,-588.004 242.214,-588.004 242.214,-617.996 242.214,-617.996 242.214,-623.996 236.214,-629.996 230.214,-629.996"/>
<text text-anchor="middle" x="183" y="-615.998" font-family="Arial" font-size="10.00" fill="#ffffff">collections:1:&lt;module&gt;</text>
<text text-anchor="middle" x="183" y="-604.499" font-family="Arial" font-size="10.00" fill="#ffffff">18.25%</text>
<text text-anchor="middle" x="183" y="-593" font-family="Arial" font-size="10.00" fill="#ffffff">(7.92%)</text>
<text text-anchor="middle" x="183" y="-581.501" font-family="Arial" font-size="10.00" fill="#ffffff">1</text>
</g>
<!-- 6&#45;&gt;18 -->
<g id="edge4" class="edge"><title>6&#45;&gt;18</title>
<path fill="none" stroke="#0c688a" stroke-width="0.73" d="M183,-671.816C183,-660.204 183,-646.468 183,-634.405"/>
<polygon fill="#0c688a" stroke="#0c688a" points="184.505,-634.344 183,-630.044 181.495,-634.344 184.505,-634.344"/>
<text text-anchor="middle" x="199.958" y="-652.499" font-family="Arial" font-size="10.00" fill="#0c688a">18.25%</text>
<text text-anchor="middle" x="199.958" y="-641" font-family="Arial" font-size="10.00" fill="#0c688a">1</text>
</g>
<!-- 50 -->
<g id="node7" class="node"><title>50</title>
<path fill="#0d1876" stroke="#0d1876" d="M370.21,-629.996C370.21,-629.996 263.79,-629.996 263.79,-629.996 257.79,-629.996 251.79,-623.996 251.79,-617.996 251.79,-617.996 251.79,-588.004 251.79,-588.004 251.79,-582.004 257.79,-576.004 263.79,-576.004 263.79,-576.004 370.21,-576.004 370.21,-576.004 376.21,-576.004 382.21,-582.004 382.21,-588.004 382.21,-588.004 382.21,-617.996 382.21,-617.996 382.21,-623.996 376.21,-629.996 370.21,-629.996"/>
<text text-anchor="middle" x="317" y="-615.998" font-family="Arial" font-size="10.00" fill="#ffffff">warnings:45:filterwarnings</text>
<text text-anchor="middle" x="317" y="-604.499" font-family="Arial" font-size="10.00" fill="#ffffff">2.70%</text>
<text text-anchor="middle" x="317" y="-593" font-family="Arial" font-size="10.00" fill="#ffffff">(0.09%)</text>
<text text-anchor="middle" x="317" y="-581.501" font-family="Arial" font-size="10.00" fill="#ffffff">1</text>
</g>
<!-- 6&#45;&gt;50 -->
<g id="edge5" class="edge"><title>6&#45;&gt;50</title>
<path fill="none" stroke="#0d1876" stroke-width="0.5" d="M220.326,-671.816C237.896,-659.491 258.877,-644.773 276.796,-632.203"/>
<polygon fill="#0d1876" stroke="#0d1876" points="277.712,-633.057 279.874,-630.044 276.305,-631.051 277.712,-633.057"/>
<text text-anchor="middle" x="280.177" y="-652.499" font-family="Arial" font-size="10.00" fill="#0d1876">2.70%</text>
<text text-anchor="middle" x="280.177" y="-641" font-family="Arial" font-size="10.00" fill="#0d1876">1</text>
</g>
<!-- 3 -->
<g id="node3" class="node"><title>3</title>
<path fill="#0d1174" stroke="#0d1174" d="M323.548,-245.996C323.548,-245.996 228.452,-245.996 228.452,-245.996 222.452,-245.996 216.452,-239.996 216.452,-233.996 216.452,-233.996 216.452,-204.004 216.452,-204.004 216.452,-198.004 222.452,-192.004 228.452,-192.004 228.452,-192.004 323.548,-192.004 323.548,-192.004 329.548,-192.004 335.548,-198.004 335.548,-204.004 335.548,-204.004 335.548,-233.996 335.548,-233.996 335.548,-239.996 329.548,-245.996 323.548,-245.996"/>
<text text-anchor="middle" x="276" y="-231.998" font-family="Arial" font-size="10.00" fill="#ffffff">sre_compile:480:_code</text>
<text text-anchor="middle" x="276" y="-220.499" font-family="Arial" font-size="10.00" fill="#ffffff">0.97%</text>
<text text-anchor="middle" x="276" y="-209" font-family="Arial" font-size="10.00" fill="#ffffff">(0.04%)</text>
<text text-anchor="middle" x="276" y="-197.501" font-family="Arial" font-size="10.00" fill="#ffffff">2</text>
</g>
<!-- 25 -->
<g id="node4" class="node"><title>25</title>
<path fill="#0d0f74" stroke="#0d0f74" d="M333.393,-149.996C333.393,-149.996 204.607,-149.996 204.607,-149.996 198.607,-149.996 192.607,-143.996 192.607,-137.996 192.607,-137.996 192.607,-108.004 192.607,-108.004 192.607,-102.004 198.607,-96.0039 204.607,-96.0039 204.607,-96.0039 333.393,-96.0039 333.393,-96.0039 339.393,-96.0039 345.393,-102.004 345.393,-108.004 345.393,-108.004 345.393,-137.996 345.393,-137.996 345.393,-143.996 339.393,-149.996 333.393,-149.996"/>
<text text-anchor="middle" x="269" y="-135.998" font-family="Arial" font-size="10.00" fill="#ffffff">sre_compile:361:_compile_info</text>
<text text-anchor="middle" x="269" y="-124.499" font-family="Arial" font-size="10.00" fill="#ffffff">0.61%</text>
<text text-anchor="middle" x="269" y="-113" font-family="Arial" font-size="10.00" fill="#ffffff">(0.29%)</text>
<text text-anchor="middle" x="269" y="-101.501" font-family="Arial" font-size="10.00" fill="#ffffff">2</text>
</g>
<!-- 3&#45;&gt;25 -->
<g id="edge2" class="edge"><title>3&#45;&gt;25</title>
<path fill="none" stroke="#0d0f74" stroke-width="0.5" d="M274.05,-191.816C273.17,-180 272.127,-165.985 271.217,-153.772"/>
<polygon fill="#0d0f74" stroke="#0d0f74" points="272.421,-153.443 270.939,-150.044 269.978,-153.625 272.421,-153.443"/>
<text text-anchor="middle" x="288.177" y="-172.499" font-family="Arial" font-size="10.00" fill="#0d0f74">0.61%</text>
<text text-anchor="middle" x="288.177" y="-161" font-family="Arial" font-size="10.00" fill="#0d0f74">2</text>
</g>
<!-- 57 -->
<g id="node12" class="node"><title>57</title>
<path fill="#0d3b80" stroke="#0d3b80" d="M223.224,-533.996C223.224,-533.996 142.776,-533.996 142.776,-533.996 136.776,-533.996 130.776,-527.996 130.776,-521.996 130.776,-521.996 130.776,-492.004 130.776,-492.004 130.776,-486.004 136.776,-480.004 142.776,-480.004 142.776,-480.004 223.224,-480.004 223.224,-480.004 229.224,-480.004 235.224,-486.004 235.224,-492.004 235.224,-492.004 235.224,-521.996 235.224,-521.996 235.224,-527.996 229.224,-533.996 223.224,-533.996"/>
<text text-anchor="middle" x="183" y="-519.998" font-family="Arial" font-size="10.00" fill="#ffffff">heapq:31:&lt;module&gt;</text>
<text text-anchor="middle" x="183" y="-508.499" font-family="Arial" font-size="10.00" fill="#ffffff">10.10%</text>
<text text-anchor="middle" x="183" y="-497" font-family="Arial" font-size="10.00" fill="#ffffff">(7.68%)</text>
<text text-anchor="middle" x="183" y="-485.501" font-family="Arial" font-size="10.00" fill="#ffffff">1</text>
</g>
<!-- 18&#45;&gt;57 -->
<g id="edge8" class="edge"><title>18&#45;&gt;57</title>
<path fill="none" stroke="#0d3b80" stroke-width="0.5" d="M183,-575.816C183,-564 183,-549.985 183,-537.772"/>
<polygon fill="#0d3b80" stroke="#0d3b80" points="184.225,-537.544 183,-534.044 181.775,-537.544 184.225,-537.544"/>
<text text-anchor="middle" x="199.958" y="-556.499" font-family="Arial" font-size="10.00" fill="#0d3b80">10.10%</text>
<text text-anchor="middle" x="199.958" y="-545" font-family="Arial" font-size="10.00" fill="#0d3b80">1</text>
</g>
<!-- 28 -->
<g id="node15" class="node"><title>28</title>
<path fill="#0d1876" stroke="#0d1876" d="M345.196,-533.996C345.196,-533.996 288.804,-533.996 288.804,-533.996 282.804,-533.996 276.804,-527.996 276.804,-521.996 276.804,-521.996 276.804,-492.004 276.804,-492.004 276.804,-486.004 282.804,-480.004 288.804,-480.004 288.804,-480.004 345.196,-480.004 345.196,-480.004 351.196,-480.004 357.196,-486.004 357.196,-492.004 357.196,-492.004 357.196,-521.996 357.196,-521.996 357.196,-527.996 351.196,-533.996 345.196,-533.996"/>
<text text-anchor="middle" x="317" y="-519.998" font-family="Arial" font-size="10.00" fill="#ffffff">re:188:compile</text>
<text text-anchor="middle" x="317" y="-508.499" font-family="Arial" font-size="10.00" fill="#ffffff">2.59%</text>
<text text-anchor="middle" x="317" y="-497" font-family="Arial" font-size="10.00" fill="#ffffff">(0.04%)</text>
<text text-anchor="middle" x="317" y="-485.501" font-family="Arial" font-size="10.00" fill="#ffffff">2</text>
</g>
<!-- 50&#45;&gt;28 -->
<g id="edge14" class="edge"><title>50&#45;&gt;28</title>
<path fill="none" stroke="#0d1876" stroke-width="0.5" d="M317,-575.816C317,-564 317,-549.985 317,-537.772"/>
<polygon fill="#0d1876" stroke="#0d1876" points="318.225,-537.544 317,-534.044 315.775,-537.544 318.225,-537.544"/>
<text text-anchor="middle" x="331.177" y="-556.499" font-family="Arial" font-size="10.00" fill="#0d1876">2.59%</text>
<text text-anchor="middle" x="331.177" y="-545" font-family="Arial" font-size="10.00" fill="#0d1876">2</text>
</g>
<!-- 8 -->
<g id="node8" class="node"><title>8</title>
<path fill="#ff0000" stroke="#ff0000" d="M212.118,-917.996C212.118,-917.996 153.882,-917.996 153.882,-917.996 147.882,-917.996 141.882,-911.996 141.882,-905.996 141.882,-905.996 141.882,-876.004 141.882,-876.004 141.882,-870.004 147.882,-864.004 153.882,-864.004 153.882,-864.004 212.118,-864.004 212.118,-864.004 218.118,-864.004 224.118,-870.004 224.118,-876.004 224.118,-876.004 224.118,-905.996 224.118,-905.996 224.118,-911.996 218.118,-917.996 212.118,-917.996"/>
<text text-anchor="middle" x="183" y="-903.998" font-family="Arial" font-size="10.00" fill="#ffffff">fib:1:&lt;module&gt;</text>
<text text-anchor="middle" x="183" y="-892.499" font-family="Arial" font-size="10.00" fill="#ffffff">99.99%</text>
<text text-anchor="middle" x="183" y="-881" font-family="Arial" font-size="10.00" fill="#ffffff">(25.82%)</text>
<text text-anchor="middle" x="183" y="-869.501" font-family="Arial" font-size="10.00" fill="#ffffff">1</text>
</g>
<!-- 8&#45;&gt;1 -->
<g id="edge6" class="edge"><title>8&#45;&gt;1</title>
<path fill="none" stroke="#d1d806" stroke-width="2.96" d="M183,-863.816C183,-853.63 183,-841.81 183,-830.918"/>
<polygon fill="#d1d806" stroke="#d1d806" points="186.01,-830.644 183,-822.044 179.99,-830.644 186.01,-830.644"/>
<text text-anchor="middle" x="199.958" y="-844.499" font-family="Arial" font-size="10.00" fill="#d1d806">74.12%</text>
<text text-anchor="middle" x="199.958" y="-833" font-family="Arial" font-size="10.00" fill="#d1d806">1</text>
</g>
<!-- 14 -->
<g id="node9" class="node"><title>14</title>
<path fill="#0d1274" stroke="#0d1274" d="M455.294,-245.996C455.294,-245.996 372.706,-245.996 372.706,-245.996 366.706,-245.996 360.706,-239.996 360.706,-233.996 360.706,-233.996 360.706,-204.004 360.706,-204.004 360.706,-198.004 366.706,-192.004 372.706,-192.004 372.706,-192.004 455.294,-192.004 455.294,-192.004 461.294,-192.004 467.294,-198.004 467.294,-204.004 467.294,-204.004 467.294,-233.996 467.294,-233.996 467.294,-239.996 461.294,-245.996 455.294,-245.996"/>
<text text-anchor="middle" x="414" y="-231.998" font-family="Arial" font-size="10.00" fill="#ffffff">sre_parse:663:parse</text>
<text text-anchor="middle" x="414" y="-220.499" font-family="Arial" font-size="10.00" fill="#ffffff">1.22%</text>
<text text-anchor="middle" x="414" y="-209" font-family="Arial" font-size="10.00" fill="#ffffff">(0.07%)</text>
<text text-anchor="middle" x="414" y="-197.501" font-family="Arial" font-size="10.00" fill="#ffffff">2</text>
</g>
<!-- 29 -->
<g id="node10" class="node"><title>29</title>
<path fill="#0d1174" stroke="#0d1174" d="M477.227,-149.996C477.227,-149.996 366.773,-149.996 366.773,-149.996 360.773,-149.996 354.773,-143.996 354.773,-137.996 354.773,-137.996 354.773,-108.004 354.773,-108.004 354.773,-102.004 360.773,-96.0039 366.773,-96.0039 366.773,-96.0039 477.227,-96.0039 477.227,-96.0039 483.227,-96.0039 489.227,-102.004 489.227,-108.004 489.227,-108.004 489.227,-137.996 489.227,-137.996 489.227,-143.996 483.227,-149.996 477.227,-149.996"/>
<text text-anchor="middle" x="422" y="-135.998" font-family="Arial" font-size="10.00" fill="#ffffff">sre_parse:301:_parse_sub</text>
<text text-anchor="middle" x="422" y="-124.499" font-family="Arial" font-size="10.00" fill="#ffffff">1.02%</text>
<text text-anchor="middle" x="422" y="-113" font-family="Arial" font-size="10.00" fill="#ffffff">(0.07%)</text>
<text text-anchor="middle" x="422" y="-101.501" font-family="Arial" font-size="10.00" fill="#ffffff">2</text>
</g>
<!-- 14&#45;&gt;29 -->
<g id="edge7" class="edge"><title>14&#45;&gt;29</title>
<path fill="none" stroke="#0d1174" stroke-width="0.5" d="M416.228,-191.816C417.234,-180 418.427,-165.985 419.466,-153.772"/>
<polygon fill="#0d1174" stroke="#0d1174" points="420.707,-153.635 419.784,-150.044 418.266,-153.427 420.707,-153.635"/>
<text text-anchor="middle" x="433.177" y="-172.499" font-family="Arial" font-size="10.00" fill="#0d1174">1.02%</text>
<text text-anchor="middle" x="433.177" y="-161" font-family="Arial" font-size="10.00" fill="#0d1174">2</text>
</g>
<!-- 15 -->
<g id="node11" class="node"><title>15</title>
<path fill="#0d1174" stroke="#0d1174" d="M466.463,-53.9961C466.463,-53.9961 377.537,-53.9961 377.537,-53.9961 371.537,-53.9961 365.537,-47.9961 365.537,-41.9961 365.537,-41.9961 365.537,-12.0039 365.537,-12.0039 365.537,-6.00391 371.537,-0.00390611 377.537,-0.00390611 377.537,-0.00390611 466.463,-0.00390611 466.463,-0.00390611 472.463,-0.00390611 478.463,-6.00391 478.463,-12.0039 478.463,-12.0039 478.463,-41.9961 478.463,-41.9961 478.463,-47.9961 472.463,-53.9961 466.463,-53.9961"/>
<text text-anchor="middle" x="422" y="-39.998" font-family="Arial" font-size="10.00" fill="#ffffff">sre_parse:379:_parse</text>
<text text-anchor="middle" x="422" y="-28.499" font-family="Arial" font-size="10.00" fill="#ffffff">0.94%</text>
<text text-anchor="middle" x="422" y="-17" font-family="Arial" font-size="10.00" fill="#ffffff">(0.39%)</text>
<text text-anchor="middle" x="422" y="-5.50098" font-family="Arial" font-size="10.00" fill="#ffffff">2</text>
</g>
<!-- 29&#45;&gt;15 -->
<g id="edge11" class="edge"><title>29&#45;&gt;15</title>
<path fill="none" stroke="#0d1174" stroke-width="0.5" d="M422,-95.8158C422,-84.0003 422,-69.9854 422,-57.7719"/>
<polygon fill="#0d1174" stroke="#0d1174" points="423.225,-57.5438 422,-54.0438 420.775,-57.5439 423.225,-57.5438"/>
<text text-anchor="middle" x="436.177" y="-76.499" font-family="Arial" font-size="10.00" fill="#0d1174">0.94%</text>
<text text-anchor="middle" x="436.177" y="-65" font-family="Arial" font-size="10.00" fill="#0d1174">2</text>
</g>
<!-- 70 -->
<g id="node16" class="node"><title>70</title>
<path fill="#0d1776" stroke="#0d1776" d="M219.291,-437.996C219.291,-437.996 146.709,-437.996 146.709,-437.996 140.709,-437.996 134.709,-431.996 134.709,-425.996 134.709,-425.996 134.709,-396.004 134.709,-396.004 134.709,-390.004 140.709,-384.004 146.709,-384.004 146.709,-384.004 219.291,-384.004 219.291,-384.004 225.291,-384.004 231.291,-390.004 231.291,-396.004 231.291,-396.004 231.291,-425.996 231.291,-425.996 231.291,-431.996 225.291,-437.996 219.291,-437.996"/>
<text text-anchor="middle" x="183" y="-423.998" font-family="Arial" font-size="10.00" fill="#ffffff">bisect:1:&lt;module&gt;</text>
<text text-anchor="middle" x="183" y="-412.499" font-family="Arial" font-size="10.00" fill="#ffffff">2.41%</text>
<text text-anchor="middle" x="183" y="-401" font-family="Arial" font-size="10.00" fill="#ffffff">(2.41%)</text>
<text text-anchor="middle" x="183" y="-389.501" font-family="Arial" font-size="10.00" fill="#ffffff">1</text>
</g>
<!-- 57&#45;&gt;70 -->
<g id="edge15" class="edge"><title>57&#45;&gt;70</title>
<path fill="none" stroke="#0d1776" stroke-width="0.5" d="M183,-479.816C183,-468 183,-453.985 183,-441.772"/>
<polygon fill="#0d1776" stroke="#0d1776" points="184.225,-441.544 183,-438.044 181.775,-441.544 184.225,-441.544"/>
<text text-anchor="middle" x="197.177" y="-460.499" font-family="Arial" font-size="10.00" fill="#0d1776">2.41%</text>
<text text-anchor="middle" x="197.177" y="-449" font-family="Arial" font-size="10.00" fill="#0d1776">1</text>
</g>
<!-- 27 -->
<g id="node13" class="node"><title>27</title>
<path fill="#0d1776" stroke="#0d1776" d="M348.364,-437.996C348.364,-437.996 285.636,-437.996 285.636,-437.996 279.636,-437.996 273.636,-431.996 273.636,-425.996 273.636,-425.996 273.636,-396.004 273.636,-396.004 273.636,-390.004 279.636,-384.004 285.636,-384.004 285.636,-384.004 348.364,-384.004 348.364,-384.004 354.364,-384.004 360.364,-390.004 360.364,-396.004 360.364,-396.004 360.364,-425.996 360.364,-425.996 360.364,-431.996 354.364,-437.996 348.364,-437.996"/>
<text text-anchor="middle" x="317" y="-423.998" font-family="Arial" font-size="10.00" fill="#ffffff">re:228:_compile</text>
<text text-anchor="middle" x="317" y="-412.499" font-family="Arial" font-size="10.00" fill="#ffffff">2.55%</text>
<text text-anchor="middle" x="317" y="-401" font-family="Arial" font-size="10.00" fill="#ffffff">(0.15%)</text>
<text text-anchor="middle" x="317" y="-389.501" font-family="Arial" font-size="10.00" fill="#ffffff">2</text>
</g>
<!-- 39 -->
<g id="node14" class="node"><title>39</title>
<path fill="#0d1776" stroke="#0d1776" d="M367.959,-341.996C367.959,-341.996 266.041,-341.996 266.041,-341.996 260.041,-341.996 254.041,-335.996 254.041,-329.996 254.041,-329.996 254.041,-300.004 254.041,-300.004 254.041,-294.004 260.041,-288.004 266.041,-288.004 266.041,-288.004 367.959,-288.004 367.959,-288.004 373.959,-288.004 379.959,-294.004 379.959,-300.004 379.959,-300.004 379.959,-329.996 379.959,-329.996 379.959,-335.996 373.959,-341.996 367.959,-341.996"/>
<text text-anchor="middle" x="317" y="-327.998" font-family="Arial" font-size="10.00" fill="#ffffff">sre_compile:495:compile</text>
<text text-anchor="middle" x="317" y="-316.499" font-family="Arial" font-size="10.00" fill="#ffffff">2.36%</text>
<text text-anchor="middle" x="317" y="-305" font-family="Arial" font-size="10.00" fill="#ffffff">(0.12%)</text>
<text text-anchor="middle" x="317" y="-293.501" font-family="Arial" font-size="10.00" fill="#ffffff">2</text>
</g>
<!-- 27&#45;&gt;39 -->
<g id="edge9" class="edge"><title>27&#45;&gt;39</title>
<path fill="none" stroke="#0d1776" stroke-width="0.5" d="M317,-383.816C317,-372 317,-357.985 317,-345.772"/>
<polygon fill="#0d1776" stroke="#0d1776" points="318.225,-345.544 317,-342.044 315.775,-345.544 318.225,-345.544"/>
<text text-anchor="middle" x="331.177" y="-364.499" font-family="Arial" font-size="10.00" fill="#0d1776">2.36%</text>
<text text-anchor="middle" x="331.177" y="-353" font-family="Arial" font-size="10.00" fill="#0d1776">2</text>
</g>
<!-- 39&#45;&gt;3 -->
<g id="edge12" class="edge"><title>39&#45;&gt;3</title>
<path fill="none" stroke="#0d1174" stroke-width="0.5" d="M305.579,-287.816C300.381,-275.898 294.207,-261.744 288.848,-249.456"/>
<polygon fill="#0d1174" stroke="#0d1174" points="289.882,-248.762 287.36,-246.044 287.636,-249.742 289.882,-248.762"/>
<text text-anchor="middle" x="316.177" y="-268.499" font-family="Arial" font-size="10.00" fill="#0d1174">0.97%</text>
<text text-anchor="middle" x="316.177" y="-257" font-family="Arial" font-size="10.00" fill="#0d1174">2</text>
</g>
<!-- 39&#45;&gt;14 -->
<g id="edge13" class="edge"><title>39&#45;&gt;14</title>
<path fill="none" stroke="#0d1274" stroke-width="0.5" d="M344.02,-287.816C356.633,-275.593 371.675,-261.016 384.575,-248.515"/>
<polygon fill="#0d1274" stroke="#0d1274" points="385.464,-249.359 387.125,-246.044 383.759,-247.6 385.464,-249.359"/>
<text text-anchor="middle" x="392.177" y="-268.499" font-family="Arial" font-size="10.00" fill="#0d1274">1.22%</text>
<text text-anchor="middle" x="392.177" y="-257" font-family="Arial" font-size="10.00" fill="#0d1274">2</text>
</g>
<!-- 28&#45;&gt;27 -->
<g id="edge10" class="edge"><title>28&#45;&gt;27</title>
<path fill="none" stroke="#0d1776" stroke-width="0.5" d="M317,-479.816C317,-468 317,-453.985 317,-441.772"/>
<polygon fill="#0d1776" stroke="#0d1776" points="318.225,-441.544 317,-438.044 315.775,-441.544 318.225,-441.544"/>
<text text-anchor="middle" x="331.177" y="-460.499" font-family="Arial" font-size="10.00" fill="#0d1776">2.55%</text>
<text text-anchor="middle" x="331.177" y="-449" font-family="Arial" font-size="10.00" fill="#0d1776">2</text>
</g>
</g>
</svg>
