<?xml version="1.0" encoding="UTF-8" standalone="no"?>
<!DOCTYPE svg PUBLIC "-//W3C//DTD SVG 1.1//EN"
 "http://www.w3.org/Graphics/SVG/1.1/DTD/svg11.dtd">
<!-- Generated by graphviz version 2.30.1 (20130315.0747)
 -->
<!-- Title: %3 Pages: 1 -->
<svg width="1007pt" height="1118pt"
 viewBox="0.00 0.00 1007.00 1118.00" xmlns="http://www.w3.org/2000/svg" xmlns:xlink="http://www.w3.org/1999/xlink">
<g id="graph0" class="graph" transform="scale(1 1) rotate(0) translate(4 1114)">
<title>%3</title>
<polygon fill="white" stroke="white" points="-4,5 -4,-1114 1004,-1114 1004,5 -4,5"/>
<!-- 1 -->
<g id="node1" class="node"><title>1</title>
<path fill="#0d2f7d" stroke="#0d2f7d" d="M556.225,-629.996C556.225,-629.996 471.775,-629.996 471.775,-629.996 465.775,-629.996 459.775,-623.996 459.775,-617.996 459.775,-617.996 459.775,-588.004 459.775,-588.004 459.775,-582.004 465.775,-576.004 471.775,-576.004 471.775,-576.004 556.225,-576.004 556.225,-576.004 562.225,-576.004 568.225,-582.004 568.225,-588.004 568.225,-588.004 568.225,-617.996 568.225,-617.996 568.225,-623.996 562.225,-629.996 556.225,-629.996"/>
<text text-anchor="middle" x="514" y="-615.998" font-family="Arial" font-size="10.00" fill="#ffffff">__init__:242:__init__</text>
<text text-anchor="middle" x="514" y="-604.499" font-family="Arial" font-size="10.00" fill="#ffffff">7.73%</text>
<text text-anchor="middle" x="514" y="-593" font-family="Arial" font-size="10.00" fill="#ffffff">(4.16%)</text>
<text text-anchor="middle" x="514" y="-581.501" font-family="Arial" font-size="10.00" fill="#ffffff">31</text>
</g>
<!-- 136 -->
<g id="node2" class="node"><title>136</title>
<path fill="#0d0f73" stroke="#0d0f73" d="M389.329,-53.9961C389.329,-53.9961 324.671,-53.9961 324.671,-53.9961 318.671,-53.9961 312.671,-47.9961 312.671,-41.9961 312.671,-41.9961 312.671,-12.0039 312.671,-12.0039 312.671,-6.00391 318.671,-0.00390611 324.671,-0.00390611 324.671,-0.00390611 389.329,-0.00390611 389.329,-0.00390611 395.329,-0.00390611 401.329,-6.00391 401.329,-12.0039 401.329,-12.0039 401.329,-41.9961 401.329,-41.9961 401.329,-47.9961 395.329,-53.9961 389.329,-53.9961"/>
<text text-anchor="middle" x="357" y="-39.998" font-family="Arial" font-size="10.00" fill="#ffffff">~:0:&lt;isinstance&gt;</text>
<text text-anchor="middle" x="357" y="-28.499" font-family="Arial" font-size="10.00" fill="#ffffff">0.52%</text>
<text text-anchor="middle" x="357" y="-17" font-family="Arial" font-size="10.00" fill="#ffffff">(0.52%)</text>
<text text-anchor="middle" x="357" y="-5.50098" font-family="Arial" font-size="10.00" fill="#ffffff">107</text>
</g>
<!-- 1&#45;&gt;136 -->
<g id="edge1" class="edge"><title>1&#45;&gt;136</title>
<path fill="none" stroke="#0d0e73" stroke-width="0.5" d="M459.807,-583.11C404.871,-563.87 327.563,-536.507 325,-534 316.151,-525.341 315,-520.381 315,-508 315,-508 315,-508 315,-122 315,-98.8513 325.749,-75.0671 336.371,-57.2147"/>
<polygon fill="#0d0e73" stroke="#0d0e73" points="337.445,-57.8054 338.211,-54.1771 335.35,-56.5359 337.445,-57.8054"/>
<text text-anchor="middle" x="329.177" y="-316.499" font-family="Arial" font-size="10.00" fill="#0d0e73">0.22%</text>
<text text-anchor="middle" x="329.177" y="-305" font-family="Arial" font-size="10.00" fill="#0d0e73">31</text>
</g>
<!-- 47 -->
<g id="node3" class="node"><title>47</title>
<path fill="#0d0f73" stroke="#0d0f73" d="M454.316,-533.996C454.316,-533.996 341.684,-533.996 341.684,-533.996 335.684,-533.996 329.684,-527.996 329.684,-521.996 329.684,-521.996 329.684,-492.004 329.684,-492.004 329.684,-486.004 335.684,-480.004 341.684,-480.004 341.684,-480.004 454.316,-480.004 454.316,-480.004 460.316,-480.004 466.316,-486.004 466.316,-492.004 466.316,-492.004 466.316,-521.996 466.316,-521.996 466.316,-527.996 460.316,-533.996 454.316,-533.996"/>
<text text-anchor="middle" x="398" y="-519.998" font-family="Arial" font-size="10.00" fill="#ffffff">__init__:153:getLevelName</text>
<text text-anchor="middle" x="398" y="-508.499" font-family="Arial" font-size="10.00" fill="#ffffff">0.58%</text>
<text text-anchor="middle" x="398" y="-497" font-family="Arial" font-size="10.00" fill="#ffffff">(0.50%)</text>
<text text-anchor="middle" x="398" y="-485.501" font-family="Arial" font-size="10.00" fill="#ffffff">31</text>
</g>
<!-- 1&#45;&gt;47 -->
<g id="edge2" class="edge"><title>1&#45;&gt;47</title>
<path fill="none" stroke="#0d0f73" stroke-width="0.5" d="M481.688,-575.816C466.604,-563.593 448.616,-549.016 433.189,-536.515"/>
<polygon fill="#0d0f73" stroke="#0d0f73" points="433.63,-535.296 430.139,-534.044 432.087,-537.199 433.63,-535.296"/>
<text text-anchor="middle" x="483.177" y="-556.499" font-family="Arial" font-size="10.00" fill="#0d0f73">0.58%</text>
<text text-anchor="middle" x="483.177" y="-545" font-family="Arial" font-size="10.00" fill="#0d0f73">31</text>
</g>
<!-- 17 -->
<g id="node4" class="node"><title>17</title>
<path fill="#0d0f73" stroke="#0d0f73" d="M590.254,-533.996C590.254,-533.996 487.746,-533.996 487.746,-533.996 481.746,-533.996 475.746,-527.996 475.746,-521.996 475.746,-521.996 475.746,-492.004 475.746,-492.004 475.746,-486.004 481.746,-480.004 487.746,-480.004 487.746,-480.004 590.254,-480.004 590.254,-480.004 596.254,-480.004 602.254,-486.004 602.254,-492.004 602.254,-492.004 602.254,-521.996 602.254,-521.996 602.254,-527.996 596.254,-533.996 590.254,-533.996"/>
<text text-anchor="middle" x="539" y="-519.998" font-family="Arial" font-size="10.00" fill="#ffffff">posixpath:110:basename</text>
<text text-anchor="middle" x="539" y="-508.499" font-family="Arial" font-size="10.00" fill="#ffffff">0.56%</text>
<text text-anchor="middle" x="539" y="-497" font-family="Arial" font-size="10.00" fill="#ffffff">(0.36%)</text>
<text text-anchor="middle" x="539" y="-485.501" font-family="Arial" font-size="10.00" fill="#ffffff">31</text>
</g>
<!-- 1&#45;&gt;17 -->
<g id="edge3" class="edge"><title>1&#45;&gt;17</title>
<path fill="none" stroke="#0d0f73" stroke-width="0.5" d="M520.964,-575.816C524.133,-563.898 527.898,-549.744 531.166,-537.456"/>
<polygon fill="#0d0f73" stroke="#0d0f73" points="532.358,-537.741 532.073,-534.044 529.99,-537.111 532.358,-537.741"/>
<text text-anchor="middle" x="543.177" y="-556.499" font-family="Arial" font-size="10.00" fill="#0d0f73">0.56%</text>
<text text-anchor="middle" x="543.177" y="-545" font-family="Arial" font-size="10.00" fill="#0d0f73">31</text>
</g>
<!-- 86 -->
<g id="node5" class="node"><title>86</title>
<path fill="#0d1274" stroke="#0d1274" d="M705.959,-533.996C705.959,-533.996 624.041,-533.996 624.041,-533.996 618.041,-533.996 612.041,-527.996 612.041,-521.996 612.041,-521.996 612.041,-492.004 612.041,-492.004 612.041,-486.004 618.041,-480.004 624.041,-480.004 624.041,-480.004 705.959,-480.004 705.959,-480.004 711.959,-480.004 717.959,-486.004 717.959,-492.004 717.959,-492.004 717.959,-521.996 717.959,-521.996 717.959,-527.996 711.959,-533.996 705.959,-533.996"/>
<text text-anchor="middle" x="665" y="-519.998" font-family="Arial" font-size="10.00" fill="#ffffff">posixpath:95:splitext</text>
<text text-anchor="middle" x="665" y="-508.499" font-family="Arial" font-size="10.00" fill="#ffffff">1.23%</text>
<text text-anchor="middle" x="665" y="-497" font-family="Arial" font-size="10.00" fill="#ffffff">(0.42%)</text>
<text text-anchor="middle" x="665" y="-485.501" font-family="Arial" font-size="10.00" fill="#ffffff">31</text>
</g>
<!-- 1&#45;&gt;86 -->
<g id="edge4" class="edge"><title>1&#45;&gt;86</title>
<path fill="none" stroke="#0d1274" stroke-width="0.5" d="M556.062,-575.816C575.86,-563.491 599.503,-548.773 619.695,-536.203"/>
<polygon fill="#0d1274" stroke="#0d1274" points="620.84,-536.934 623.164,-534.044 619.545,-534.854 620.84,-536.934"/>
<text text-anchor="middle" x="621.177" y="-556.499" font-family="Arial" font-size="10.00" fill="#0d1274">1.23%</text>
<text text-anchor="middle" x="621.177" y="-545" font-family="Arial" font-size="10.00" fill="#0d1274">31</text>
</g>
<!-- 21 -->
<g id="node24" class="node"><title>21</title>
<path fill="#0d1074" stroke="#0d1074" d="M568.221,-437.996C568.221,-437.996 471.779,-437.996 471.779,-437.996 465.779,-437.996 459.779,-431.996 459.779,-425.996 459.779,-425.996 459.779,-396.004 459.779,-396.004 459.779,-390.004 465.779,-384.004 471.779,-384.004 471.779,-384.004 568.221,-384.004 568.221,-384.004 574.221,-384.004 580.221,-390.004 580.221,-396.004 580.221,-396.004 580.221,-425.996 580.221,-425.996 580.221,-431.996 574.221,-437.996 568.221,-437.996"/>
<text text-anchor="middle" x="520" y="-423.998" font-family="Arial" font-size="10.00" fill="#ffffff">genericpath:85:_splitext</text>
<text text-anchor="middle" x="520" y="-412.499" font-family="Arial" font-size="10.00" fill="#ffffff">0.81%</text>
<text text-anchor="middle" x="520" y="-401" font-family="Arial" font-size="10.00" fill="#ffffff">(0.62%)</text>
<text text-anchor="middle" x="520" y="-389.501" font-family="Arial" font-size="10.00" fill="#ffffff">31</text>
</g>
<!-- 86&#45;&gt;21 -->
<g id="edge42" class="edge"><title>86&#45;&gt;21</title>
<path fill="none" stroke="#0d1074" stroke-width="0.5" d="M624.609,-479.816C605.598,-467.491 582.895,-452.773 563.505,-440.203"/>
<polygon fill="#0d1074" stroke="#0d1074" points="563.777,-438.92 560.174,-438.044 562.444,-440.976 563.777,-438.92"/>
<text text-anchor="middle" x="623.177" y="-460.499" font-family="Arial" font-size="10.00" fill="#0d1074">0.81%</text>
<text text-anchor="middle" x="623.177" y="-449" font-family="Arial" font-size="10.00" fill="#0d1074">31</text>
</g>
<!-- 2 -->
<g id="node6" class="node"><title>2</title>
<path fill="#95cf07" stroke="#95cf07" d="M422.14,-1014C422.14,-1014 333.86,-1014 333.86,-1014 327.86,-1014 321.86,-1008 321.86,-1002 321.86,-1002 321.86,-972.004 321.86,-972.004 321.86,-966.004 327.86,-960.004 333.86,-960.004 333.86,-960.004 422.14,-960.004 422.14,-960.004 428.14,-960.004 434.14,-966.004 434.14,-972.004 434.14,-972.004 434.14,-1002 434.14,-1002 434.14,-1008 428.14,-1014 422.14,-1014"/>
<text text-anchor="middle" x="378" y="-999.998" font-family="Arial" font-size="10.00" fill="#ffffff">__init__:24:&lt;module&gt;</text>
<text text-anchor="middle" x="378" y="-988.499" font-family="Arial" font-size="10.00" fill="#ffffff">67.78%</text>
<text text-anchor="middle" x="378" y="-977" font-family="Arial" font-size="10.00" fill="#ffffff">(30.83%)</text>
<text text-anchor="middle" x="378" y="-965.501" font-family="Arial" font-size="10.00" fill="#ffffff">1</text>
</g>
<!-- 7 -->
<g id="node7" class="node"><title>7</title>
<path fill="#0ba260" stroke="#0ba260" d="M324.471,-917.996C324.471,-917.996 235.529,-917.996 235.529,-917.996 229.529,-917.996 223.529,-911.996 223.529,-905.996 223.529,-905.996 223.529,-876.004 223.529,-876.004 223.529,-870.004 229.529,-864.004 235.529,-864.004 235.529,-864.004 324.471,-864.004 324.471,-864.004 330.471,-864.004 336.471,-870.004 336.471,-876.004 336.471,-876.004 336.471,-905.996 336.471,-905.996 336.471,-911.996 330.471,-917.996 324.471,-917.996"/>
<text text-anchor="middle" x="280" y="-903.998" font-family="Arial" font-size="10.00" fill="#ffffff">threading:1:&lt;module&gt;</text>
<text text-anchor="middle" x="280" y="-892.499" font-family="Arial" font-size="10.00" fill="#ffffff">35.97%</text>
<text text-anchor="middle" x="280" y="-881" font-family="Arial" font-size="10.00" fill="#ffffff">(6.94%)</text>
<text text-anchor="middle" x="280" y="-869.501" font-family="Arial" font-size="10.00" fill="#ffffff">1</text>
</g>
<!-- 2&#45;&gt;7 -->
<g id="edge5" class="edge"><title>2&#45;&gt;7</title>
<path fill="none" stroke="#0ba260" stroke-width="1.44" d="M350.702,-959.816C338.596,-948.204 324.275,-934.468 311.699,-922.405"/>
<polygon fill="#0ba260" stroke="#0ba260" points="312.936,-920.682 307.152,-918.044 310.028,-923.713 312.936,-920.682"/>
<text text-anchor="middle" x="356.958" y="-940.499" font-family="Arial" font-size="10.00" fill="#0ba260">35.97%</text>
<text text-anchor="middle" x="356.958" y="-929" font-family="Arial" font-size="10.00" fill="#0ba260">1</text>
</g>
<!-- 83 -->
<g id="node10" class="node"><title>83</title>
<path fill="#0d1174" stroke="#0d1174" d="M164.227,-821.996C164.227,-821.996 73.7726,-821.996 73.7726,-821.996 67.7726,-821.996 61.7726,-815.996 61.7726,-809.996 61.7726,-809.996 61.7726,-780.004 61.7726,-780.004 61.7726,-774.004 67.7726,-768.004 73.7726,-768.004 73.7726,-768.004 164.227,-768.004 164.227,-768.004 170.227,-768.004 176.227,-774.004 176.227,-780.004 176.227,-780.004 176.227,-809.996 176.227,-809.996 176.227,-815.996 170.227,-821.996 164.227,-821.996"/>
<text text-anchor="middle" x="119" y="-807.998" font-family="Arial" font-size="10.00" fill="#ffffff">threading:764:__init__</text>
<text text-anchor="middle" x="119" y="-796.499" font-family="Arial" font-size="10.00" fill="#ffffff">0.92%</text>
<text text-anchor="middle" x="119" y="-785" font-family="Arial" font-size="10.00" fill="#ffffff">(0.08%)</text>
<text text-anchor="middle" x="119" y="-773.501" font-family="Arial" font-size="10.00" fill="#ffffff">1</text>
</g>
<!-- 7&#45;&gt;83 -->
<g id="edge7" class="edge"><title>7&#45;&gt;83</title>
<path fill="none" stroke="#0d1174" stroke-width="0.5" d="M235.153,-863.816C213.869,-851.389 188.418,-836.53 166.772,-823.892"/>
<polygon fill="#0d1174" stroke="#0d1174" points="167.247,-822.751 163.607,-822.044 166.012,-824.866 167.247,-822.751"/>
<text text-anchor="middle" x="233.177" y="-844.499" font-family="Arial" font-size="10.00" fill="#0d1174">0.92%</text>
<text text-anchor="middle" x="233.177" y="-833" font-family="Arial" font-size="10.00" fill="#0d1174">1</text>
</g>
<!-- 79 -->
<g id="node11" class="node"><title>79</title>
<path fill="#0d1d78" stroke="#0d1d78" d="M304.21,-821.996C304.21,-821.996 197.79,-821.996 197.79,-821.996 191.79,-821.996 185.79,-815.996 185.79,-809.996 185.79,-809.996 185.79,-780.004 185.79,-780.004 185.79,-774.004 191.79,-768.004 197.79,-768.004 197.79,-768.004 304.21,-768.004 304.21,-768.004 310.21,-768.004 316.21,-774.004 316.21,-780.004 316.21,-780.004 316.21,-809.996 316.21,-809.996 316.21,-815.996 310.21,-821.996 304.21,-821.996"/>
<text text-anchor="middle" x="251" y="-807.998" font-family="Arial" font-size="10.00" fill="#ffffff">warnings:45:filterwarnings</text>
<text text-anchor="middle" x="251" y="-796.499" font-family="Arial" font-size="10.00" fill="#ffffff">3.84%</text>
<text text-anchor="middle" x="251" y="-785" font-family="Arial" font-size="10.00" fill="#ffffff">(0.11%)</text>
<text text-anchor="middle" x="251" y="-773.501" font-family="Arial" font-size="10.00" fill="#ffffff">1</text>
</g>
<!-- 7&#45;&gt;79 -->
<g id="edge8" class="edge"><title>7&#45;&gt;79</title>
<path fill="none" stroke="#0d1d78" stroke-width="0.5" d="M271.922,-863.816C268.245,-851.898 263.878,-837.744 260.088,-825.456"/>
<polygon fill="#0d1d78" stroke="#0d1d78" points="261.237,-825.027 259.035,-822.044 258.896,-825.749 261.237,-825.027"/>
<text text-anchor="middle" x="283.177" y="-844.499" font-family="Arial" font-size="10.00" fill="#0d1d78">3.84%</text>
<text text-anchor="middle" x="283.177" y="-833" font-family="Arial" font-size="10.00" fill="#0d1d78">1</text>
</g>
<!-- 26 -->
<g id="node12" class="node"><title>26</title>
<path fill="#0c8b92" stroke="#0c8b92" d="M432.214,-821.996C432.214,-821.996 337.786,-821.996 337.786,-821.996 331.786,-821.996 325.786,-815.996 325.786,-809.996 325.786,-809.996 325.786,-780.004 325.786,-780.004 325.786,-774.004 331.786,-768.004 337.786,-768.004 337.786,-768.004 432.214,-768.004 432.214,-768.004 438.214,-768.004 444.214,-774.004 444.214,-780.004 444.214,-780.004 444.214,-809.996 444.214,-809.996 444.214,-815.996 438.214,-821.996 432.214,-821.996"/>
<text text-anchor="middle" x="385" y="-807.998" font-family="Arial" font-size="10.00" fill="#ffffff">collections:1:&lt;module&gt;</text>
<text text-anchor="middle" x="385" y="-796.499" font-family="Arial" font-size="10.00" fill="#ffffff">23.73%</text>
<text text-anchor="middle" x="385" y="-785" font-family="Arial" font-size="10.00" fill="#ffffff">(10.20%)</text>
<text text-anchor="middle" x="385" y="-773.501" font-family="Arial" font-size="10.00" fill="#ffffff">1</text>
</g>
<!-- 7&#45;&gt;26 -->
<g id="edge9" class="edge"><title>7&#45;&gt;26</title>
<path fill="none" stroke="#0c8b92" stroke-width="0.95" d="M309.248,-863.816C322.56,-851.898 338.371,-837.744 352.096,-825.456"/>
<polygon fill="#0c8b92" stroke="#0c8b92" points="353.402,-826.59 355.909,-822.044 351.114,-824.034 353.402,-826.59"/>
<text text-anchor="middle" x="360.958" y="-844.499" font-family="Arial" font-size="10.00" fill="#0c8b92">23.73%</text>
<text text-anchor="middle" x="360.958" y="-833" font-family="Arial" font-size="10.00" fill="#0c8b92">1</text>
</g>
<!-- 4 -->
<g id="node8" class="node"><title>4</title>
<path fill="#0d1375" stroke="#0d1375" d="M267.548,-437.996C267.548,-437.996 172.452,-437.996 172.452,-437.996 166.452,-437.996 160.452,-431.996 160.452,-425.996 160.452,-425.996 160.452,-396.004 160.452,-396.004 160.452,-390.004 166.452,-384.004 172.452,-384.004 172.452,-384.004 267.548,-384.004 267.548,-384.004 273.548,-384.004 279.548,-390.004 279.548,-396.004 279.548,-396.004 279.548,-425.996 279.548,-425.996 279.548,-431.996 273.548,-437.996 267.548,-437.996"/>
<text text-anchor="middle" x="220" y="-423.998" font-family="Arial" font-size="10.00" fill="#ffffff">sre_compile:480:_code</text>
<text text-anchor="middle" x="220" y="-412.499" font-family="Arial" font-size="10.00" fill="#ffffff">1.42%</text>
<text text-anchor="middle" x="220" y="-401" font-family="Arial" font-size="10.00" fill="#ffffff">(0.08%)</text>
<text text-anchor="middle" x="220" y="-389.501" font-family="Arial" font-size="10.00" fill="#ffffff">2</text>
</g>
<!-- 37 -->
<g id="node9" class="node"><title>37</title>
<path fill="#0d1074" stroke="#0d1074" d="M284.393,-341.996C284.393,-341.996 155.607,-341.996 155.607,-341.996 149.607,-341.996 143.607,-335.996 143.607,-329.996 143.607,-329.996 143.607,-300.004 143.607,-300.004 143.607,-294.004 149.607,-288.004 155.607,-288.004 155.607,-288.004 284.393,-288.004 284.393,-288.004 290.393,-288.004 296.393,-294.004 296.393,-300.004 296.393,-300.004 296.393,-329.996 296.393,-329.996 296.393,-335.996 290.393,-341.996 284.393,-341.996"/>
<text text-anchor="middle" x="220" y="-327.998" font-family="Arial" font-size="10.00" fill="#ffffff">sre_compile:361:_compile_info</text>
<text text-anchor="middle" x="220" y="-316.499" font-family="Arial" font-size="10.00" fill="#ffffff">0.91%</text>
<text text-anchor="middle" x="220" y="-305" font-family="Arial" font-size="10.00" fill="#ffffff">(0.42%)</text>
<text text-anchor="middle" x="220" y="-293.501" font-family="Arial" font-size="10.00" fill="#ffffff">2</text>
</g>
<!-- 4&#45;&gt;37 -->
<g id="edge6" class="edge"><title>4&#45;&gt;37</title>
<path fill="none" stroke="#0d1074" stroke-width="0.5" d="M220,-383.816C220,-372 220,-357.985 220,-345.772"/>
<polygon fill="#0d1074" stroke="#0d1074" points="221.225,-345.544 220,-342.044 218.775,-345.544 221.225,-345.544"/>
<text text-anchor="middle" x="234.177" y="-364.499" font-family="Arial" font-size="10.00" fill="#0d1074">0.91%</text>
<text text-anchor="middle" x="234.177" y="-353" font-family="Arial" font-size="10.00" fill="#0d1074">2</text>
</g>
<!-- 33 -->
<g id="node31" class="node"><title>33</title>
<path fill="#0d0f74" stroke="#0d0f74" d="M164.227,-725.996C164.227,-725.996 73.7726,-725.996 73.7726,-725.996 67.7726,-725.996 61.7726,-719.996 61.7726,-713.996 61.7726,-713.996 61.7726,-684.004 61.7726,-684.004 61.7726,-678.004 67.7726,-672.004 73.7726,-672.004 73.7726,-672.004 164.227,-672.004 164.227,-672.004 170.227,-672.004 176.227,-678.004 176.227,-684.004 176.227,-684.004 176.227,-713.996 176.227,-713.996 176.227,-719.996 170.227,-725.996 164.227,-725.996"/>
<text text-anchor="middle" x="119" y="-711.998" font-family="Arial" font-size="10.00" fill="#ffffff">threading:436:__init__</text>
<text text-anchor="middle" x="119" y="-700.499" font-family="Arial" font-size="10.00" fill="#ffffff">0.59%</text>
<text text-anchor="middle" x="119" y="-689" font-family="Arial" font-size="10.00" fill="#ffffff">(0.16%)</text>
<text text-anchor="middle" x="119" y="-677.501" font-family="Arial" font-size="10.00" fill="#ffffff">1</text>
</g>
<!-- 83&#45;&gt;33 -->
<g id="edge38" class="edge"><title>83&#45;&gt;33</title>
<path fill="none" stroke="#0d0f74" stroke-width="0.5" d="M119,-767.816C119,-756 119,-741.985 119,-729.772"/>
<polygon fill="#0d0f74" stroke="#0d0f74" points="120.225,-729.544 119,-726.044 117.775,-729.544 120.225,-729.544"/>
<text text-anchor="middle" x="133.177" y="-748.499" font-family="Arial" font-size="10.00" fill="#0d0f74">0.59%</text>
<text text-anchor="middle" x="133.177" y="-737" font-family="Arial" font-size="10.00" fill="#0d0f74">1</text>
</g>
<!-- 43 -->
<g id="node35" class="node"><title>43</title>
<path fill="#0d1c77" stroke="#0d1c77" d="M279.196,-725.996C279.196,-725.996 222.804,-725.996 222.804,-725.996 216.804,-725.996 210.804,-719.996 210.804,-713.996 210.804,-713.996 210.804,-684.004 210.804,-684.004 210.804,-678.004 216.804,-672.004 222.804,-672.004 222.804,-672.004 279.196,-672.004 279.196,-672.004 285.196,-672.004 291.196,-678.004 291.196,-684.004 291.196,-684.004 291.196,-713.996 291.196,-713.996 291.196,-719.996 285.196,-725.996 279.196,-725.996"/>
<text text-anchor="middle" x="251" y="-711.998" font-family="Arial" font-size="10.00" fill="#ffffff">re:188:compile</text>
<text text-anchor="middle" x="251" y="-700.499" font-family="Arial" font-size="10.00" fill="#ffffff">3.67%</text>
<text text-anchor="middle" x="251" y="-689" font-family="Arial" font-size="10.00" fill="#ffffff">(0.05%)</text>
<text text-anchor="middle" x="251" y="-677.501" font-family="Arial" font-size="10.00" fill="#ffffff">2</text>
</g>
<!-- 79&#45;&gt;43 -->
<g id="edge37" class="edge"><title>79&#45;&gt;43</title>
<path fill="none" stroke="#0d1c77" stroke-width="0.5" d="M251,-767.816C251,-756 251,-741.985 251,-729.772"/>
<polygon fill="#0d1c77" stroke="#0d1c77" points="252.225,-729.544 251,-726.044 249.775,-729.544 252.225,-729.544"/>
<text text-anchor="middle" x="265.177" y="-748.499" font-family="Arial" font-size="10.00" fill="#0d1c77">3.67%</text>
<text text-anchor="middle" x="265.177" y="-737" font-family="Arial" font-size="10.00" fill="#0d1c77">2</text>
</g>
<!-- 90 -->
<g id="node27" class="node"><title>90</title>
<path fill="#0d4c84" stroke="#0d4c84" d="M425.224,-725.996C425.224,-725.996 344.776,-725.996 344.776,-725.996 338.776,-725.996 332.776,-719.996 332.776,-713.996 332.776,-713.996 332.776,-684.004 332.776,-684.004 332.776,-678.004 338.776,-672.004 344.776,-672.004 344.776,-672.004 425.224,-672.004 425.224,-672.004 431.224,-672.004 437.224,-678.004 437.224,-684.004 437.224,-684.004 437.224,-713.996 437.224,-713.996 437.224,-719.996 431.224,-725.996 425.224,-725.996"/>
<text text-anchor="middle" x="385" y="-711.998" font-family="Arial" font-size="10.00" fill="#ffffff">heapq:31:&lt;module&gt;</text>
<text text-anchor="middle" x="385" y="-700.499" font-family="Arial" font-size="10.00" fill="#ffffff">13.22%</text>
<text text-anchor="middle" x="385" y="-689" font-family="Arial" font-size="10.00" fill="#ffffff">(10.09%)</text>
<text text-anchor="middle" x="385" y="-677.501" font-family="Arial" font-size="10.00" fill="#ffffff">1</text>
</g>
<!-- 26&#45;&gt;90 -->
<g id="edge21" class="edge"><title>26&#45;&gt;90</title>
<path fill="none" stroke="#0d4c84" stroke-width="0.53" d="M385,-767.816C385,-756 385,-741.985 385,-729.772"/>
<polygon fill="#0d4c84" stroke="#0d4c84" points="386.26,-729.644 385,-726.044 383.74,-729.644 386.26,-729.644"/>
<text text-anchor="middle" x="401.958" y="-748.499" font-family="Arial" font-size="10.00" fill="#0d4c84">13.22%</text>
<text text-anchor="middle" x="401.958" y="-737" font-family="Arial" font-size="10.00" fill="#0d4c84">1</text>
</g>
<!-- 9 -->
<g id="node13" class="node"><title>9</title>
<path fill="#0d1074" stroke="#0d1074" d="M300.312,-1014C300.312,-1014 193.688,-1014 193.688,-1014 187.688,-1014 181.688,-1008 181.688,-1002 181.688,-1002 181.688,-972.004 181.688,-972.004 181.688,-966.004 187.688,-960.004 193.688,-960.004 193.688,-960.004 300.312,-960.004 300.312,-960.004 306.312,-960.004 312.312,-966.004 312.312,-972.004 312.312,-972.004 312.312,-1002 312.312,-1002 312.312,-1008 306.312,-1014 300.312,-1014"/>
<text text-anchor="middle" x="247" y="-999.998" font-family="Arial" font-size="10.00" fill="#ffffff">__init__:1471:basicConfig</text>
<text text-anchor="middle" x="247" y="-988.499" font-family="Arial" font-size="10.00" fill="#ffffff">0.81%</text>
<text text-anchor="middle" x="247" y="-977" font-family="Arial" font-size="10.00" fill="#ffffff">(0.17%)</text>
<text text-anchor="middle" x="247" y="-965.501" font-family="Arial" font-size="10.00" fill="#ffffff">1</text>
</g>
<!-- 10 -->
<g id="node14" class="node"><title>10</title>
<path fill="#0d4281" stroke="#0d4281" d="M831.393,-629.996C831.393,-629.996 722.607,-629.996 722.607,-629.996 716.607,-629.996 710.607,-623.996 710.607,-617.996 710.607,-617.996 710.607,-588.004 710.607,-588.004 710.607,-582.004 716.607,-576.004 722.607,-576.004 722.607,-576.004 831.393,-576.004 831.393,-576.004 837.393,-576.004 843.393,-582.004 843.393,-588.004 843.393,-588.004 843.393,-617.996 843.393,-617.996 843.393,-623.996 837.393,-629.996 831.393,-629.996"/>
<text text-anchor="middle" x="777" y="-615.998" font-family="Arial" font-size="10.00" fill="#ffffff">__init__:1284:callHandlers</text>
<text text-anchor="middle" x="777" y="-604.499" font-family="Arial" font-size="10.00" fill="#ffffff">11.34%</text>
<text text-anchor="middle" x="777" y="-593" font-family="Arial" font-size="10.00" fill="#ffffff">(0.81%)</text>
<text text-anchor="middle" x="777" y="-581.501" font-family="Arial" font-size="10.00" fill="#ffffff">31</text>
</g>
<!-- 51 -->
<g id="node15" class="node"><title>51</title>
<path fill="#0d3d80" stroke="#0d3d80" d="M828.474,-533.996C828.474,-533.996 749.526,-533.996 749.526,-533.996 743.526,-533.996 737.526,-527.996 737.526,-521.996 737.526,-521.996 737.526,-492.004 737.526,-492.004 737.526,-486.004 743.526,-480.004 749.526,-480.004 749.526,-480.004 828.474,-480.004 828.474,-480.004 834.474,-480.004 840.474,-486.004 840.474,-492.004 840.474,-492.004 840.474,-521.996 840.474,-521.996 840.474,-527.996 834.474,-533.996 828.474,-533.996"/>
<text text-anchor="middle" x="789" y="-519.998" font-family="Arial" font-size="10.00" fill="#ffffff">__init__:731:handle</text>
<text text-anchor="middle" x="789" y="-508.499" font-family="Arial" font-size="10.00" fill="#ffffff">10.53%</text>
<text text-anchor="middle" x="789" y="-497" font-family="Arial" font-size="10.00" fill="#ffffff">(0.73%)</text>
<text text-anchor="middle" x="789" y="-485.501" font-family="Arial" font-size="10.00" fill="#ffffff">31</text>
</g>
<!-- 10&#45;&gt;51 -->
<g id="edge10" class="edge"><title>10&#45;&gt;51</title>
<path fill="none" stroke="#0d3d80" stroke-width="0.5" d="M780.343,-575.816C781.851,-564 783.64,-549.985 785.199,-537.772"/>
<polygon fill="#0d3d80" stroke="#0d3d80" points="786.447,-537.671 785.675,-534.044 784.017,-537.36 786.447,-537.671"/>
<text text-anchor="middle" x="800.958" y="-556.499" font-family="Arial" font-size="10.00" fill="#0d3d80">10.53%</text>
<text text-anchor="middle" x="800.958" y="-545" font-family="Arial" font-size="10.00" fill="#0d3d80">31</text>
</g>
<!-- 16 -->
<g id="node21" class="node"><title>16</title>
<path fill="#0d2a7b" stroke="#0d2a7b" d="M670.122,-437.996C670.122,-437.996 601.878,-437.996 601.878,-437.996 595.878,-437.996 589.878,-431.996 589.878,-425.996 589.878,-425.996 589.878,-396.004 589.878,-396.004 589.878,-390.004 595.878,-384.004 601.878,-384.004 601.878,-384.004 670.122,-384.004 670.122,-384.004 676.122,-384.004 682.122,-390.004 682.122,-396.004 682.122,-396.004 682.122,-425.996 682.122,-425.996 682.122,-431.996 676.122,-437.996 670.122,-437.996"/>
<text text-anchor="middle" x="636" y="-423.998" font-family="Arial" font-size="10.00" fill="#ffffff">__init__:830:emit</text>
<text text-anchor="middle" x="636" y="-412.499" font-family="Arial" font-size="10.00" fill="#ffffff">6.56%</text>
<text text-anchor="middle" x="636" y="-401" font-family="Arial" font-size="10.00" fill="#ffffff">(1.30%)</text>
<text text-anchor="middle" x="636" y="-389.501" font-family="Arial" font-size="10.00" fill="#ffffff">31</text>
</g>
<!-- 51&#45;&gt;16 -->
<g id="edge27" class="edge"><title>51&#45;&gt;16</title>
<path fill="none" stroke="#0d2a7b" stroke-width="0.5" d="M746.381,-479.816C726.155,-467.389 701.969,-452.53 681.398,-439.892"/>
<polygon fill="#0d2a7b" stroke="#0d2a7b" points="682.014,-438.832 678.39,-438.044 680.731,-440.92 682.014,-438.832"/>
<text text-anchor="middle" x="744.177" y="-460.499" font-family="Arial" font-size="10.00" fill="#0d2a7b">6.56%</text>
<text text-anchor="middle" x="744.177" y="-449" font-family="Arial" font-size="10.00" fill="#0d2a7b">31</text>
</g>
<!-- 76 -->
<g id="node37" class="node"><title>76</title>
<path fill="#0d1375" stroke="#0d1375" d="M857.051,-437.996C857.051,-437.996 774.949,-437.996 774.949,-437.996 768.949,-437.996 762.949,-431.996 762.949,-425.996 762.949,-425.996 762.949,-396.004 762.949,-396.004 762.949,-390.004 768.949,-384.004 774.949,-384.004 774.949,-384.004 857.051,-384.004 857.051,-384.004 863.051,-384.004 869.051,-390.004 869.051,-396.004 869.051,-396.004 869.051,-425.996 869.051,-425.996 869.051,-431.996 863.051,-437.996 857.051,-437.996"/>
<text text-anchor="middle" x="816" y="-423.998" font-family="Arial" font-size="10.00" fill="#ffffff">__init__:688:acquire</text>
<text text-anchor="middle" x="816" y="-412.499" font-family="Arial" font-size="10.00" fill="#ffffff">1.58%</text>
<text text-anchor="middle" x="816" y="-401" font-family="Arial" font-size="10.00" fill="#ffffff">(0.33%)</text>
<text text-anchor="middle" x="816" y="-389.501" font-family="Arial" font-size="10.00" fill="#ffffff">31</text>
</g>
<!-- 51&#45;&gt;76 -->
<g id="edge28" class="edge"><title>51&#45;&gt;76</title>
<path fill="none" stroke="#0d1375" stroke-width="0.5" d="M796.521,-479.816C799.944,-467.898 804.01,-453.744 807.539,-441.456"/>
<polygon fill="#0d1375" stroke="#0d1375" points="808.73,-441.746 808.519,-438.044 806.376,-441.07 808.73,-441.746"/>
<text text-anchor="middle" x="819.177" y="-460.499" font-family="Arial" font-size="10.00" fill="#0d1375">1.58%</text>
<text text-anchor="middle" x="819.177" y="-449" font-family="Arial" font-size="10.00" fill="#0d1375">31</text>
</g>
<!-- 102 -->
<g id="node38" class="node"><title>102</title>
<path fill="#0d1375" stroke="#0d1375" d="M978.051,-437.996C978.051,-437.996 895.949,-437.996 895.949,-437.996 889.949,-437.996 883.949,-431.996 883.949,-425.996 883.949,-425.996 883.949,-396.004 883.949,-396.004 883.949,-390.004 889.949,-384.004 895.949,-384.004 895.949,-384.004 978.051,-384.004 978.051,-384.004 984.051,-384.004 990.051,-390.004 990.051,-396.004 990.051,-396.004 990.051,-425.996 990.051,-425.996 990.051,-431.996 984.051,-437.996 978.051,-437.996"/>
<text text-anchor="middle" x="937" y="-423.998" font-family="Arial" font-size="10.00" fill="#ffffff">__init__:695:release</text>
<text text-anchor="middle" x="937" y="-412.499" font-family="Arial" font-size="10.00" fill="#ffffff">1.52%</text>
<text text-anchor="middle" x="937" y="-401" font-family="Arial" font-size="10.00" fill="#ffffff">(0.27%)</text>
<text text-anchor="middle" x="937" y="-389.501" font-family="Arial" font-size="10.00" fill="#ffffff">31</text>
</g>
<!-- 51&#45;&gt;102 -->
<g id="edge29" class="edge"><title>51&#45;&gt;102</title>
<path fill="none" stroke="#0d1375" stroke-width="0.5" d="M830.226,-479.816C849.631,-467.491 872.804,-452.773 892.595,-440.203"/>
<polygon fill="#0d1375" stroke="#0d1375" points="893.697,-440.954 895.995,-438.044 892.384,-438.886 893.697,-440.954"/>
<text text-anchor="middle" x="894.177" y="-460.499" font-family="Arial" font-size="10.00" fill="#0d1375">1.52%</text>
<text text-anchor="middle" x="894.177" y="-449" font-family="Arial" font-size="10.00" fill="#0d1375">31</text>
</g>
<!-- 11 -->
<g id="node16" class="node"><title>11</title>
<path fill="#0d4582" stroke="#0d4582" d="M817.146,-725.996C817.146,-725.996 732.854,-725.996 732.854,-725.996 726.854,-725.996 720.854,-719.996 720.854,-713.996 720.854,-713.996 720.854,-684.004 720.854,-684.004 720.854,-678.004 726.854,-672.004 732.854,-672.004 732.854,-672.004 817.146,-672.004 817.146,-672.004 823.146,-672.004 829.146,-678.004 829.146,-684.004 829.146,-684.004 829.146,-713.996 829.146,-713.996 829.146,-719.996 823.146,-725.996 817.146,-725.996"/>
<text text-anchor="middle" x="775" y="-711.998" font-family="Arial" font-size="10.00" fill="#ffffff">__init__:1252:handle</text>
<text text-anchor="middle" x="775" y="-700.499" font-family="Arial" font-size="10.00" fill="#ffffff">11.97%</text>
<text text-anchor="middle" x="775" y="-689" font-family="Arial" font-size="10.00" fill="#ffffff">(0.36%)</text>
<text text-anchor="middle" x="775" y="-677.501" font-family="Arial" font-size="10.00" fill="#ffffff">31</text>
</g>
<!-- 11&#45;&gt;10 -->
<g id="edge11" class="edge"><title>11&#45;&gt;10</title>
<path fill="none" stroke="#0d4281" stroke-width="0.5" d="M775.557,-671.816C775.809,-660 776.107,-645.985 776.367,-633.772"/>
<polygon fill="#0d4281" stroke="#0d4281" points="777.596,-633.569 776.446,-630.044 775.147,-633.517 777.596,-633.569"/>
<text text-anchor="middle" x="792.587" y="-652.499" font-family="Arial" font-size="10.00" fill="#0d4281">11.34%</text>
<text text-anchor="middle" x="792.587" y="-641" font-family="Arial" font-size="10.00" fill="#0d4281">31</text>
</g>
<!-- 12 -->
<g id="node17" class="node"><title>12</title>
<path fill="#0d1274" stroke="#0d1274" d="M647.254,-149.996C647.254,-149.996 544.746,-149.996 544.746,-149.996 538.746,-149.996 532.746,-143.996 532.746,-137.996 532.746,-137.996 532.746,-108.004 532.746,-108.004 532.746,-102.004 538.746,-96.0039 544.746,-96.0039 544.746,-96.0039 647.254,-96.0039 647.254,-96.0039 653.254,-96.0039 659.254,-102.004 659.254,-108.004 659.254,-108.004 659.254,-137.996 659.254,-137.996 659.254,-143.996 653.254,-149.996 647.254,-149.996"/>
<text text-anchor="middle" x="596" y="-135.998" font-family="Arial" font-size="10.00" fill="#ffffff">__init__:311:getMessage</text>
<text text-anchor="middle" x="596" y="-124.499" font-family="Arial" font-size="10.00" fill="#ffffff">1.28%</text>
<text text-anchor="middle" x="596" y="-113" font-family="Arial" font-size="10.00" fill="#ffffff">(1.16%)</text>
<text text-anchor="middle" x="596" y="-101.501" font-family="Arial" font-size="10.00" fill="#ffffff">31</text>
</g>
<!-- 12&#45;&gt;136 -->
<g id="edge12" class="edge"><title>12&#45;&gt;136</title>
<path fill="none" stroke="#0d0d73" stroke-width="0.5" d="M532.58,-97.0565C492.523,-81.3019 441.594,-61.2713 404.915,-46.8451"/>
<polygon fill="#0d0d73" stroke="#0d0d73" points="405.116,-45.6079 401.41,-45.4668 404.219,-47.8879 405.116,-45.6079"/>
<text text-anchor="middle" x="518.177" y="-76.499" font-family="Arial" font-size="10.00" fill="#0d0d73">0.12%</text>
<text text-anchor="middle" x="518.177" y="-65" font-family="Arial" font-size="10.00" fill="#0d0d73">31</text>
</g>
<!-- 13 -->
<g id="node18" class="node"><title>13</title>
<path fill="#0d1976" stroke="#0d1976" d="M634.21,-245.996C634.21,-245.996 557.79,-245.996 557.79,-245.996 551.79,-245.996 545.79,-239.996 545.79,-233.996 545.79,-233.996 545.79,-204.004 545.79,-204.004 545.79,-198.004 551.79,-192.004 557.79,-192.004 557.79,-192.004 634.21,-192.004 634.21,-192.004 640.21,-192.004 646.21,-198.004 646.21,-204.004 646.21,-204.004 646.21,-233.996 646.21,-233.996 646.21,-239.996 640.21,-245.996 634.21,-245.996"/>
<text text-anchor="middle" x="596" y="-231.998" font-family="Arial" font-size="10.00" fill="#ffffff">__init__:451:format</text>
<text text-anchor="middle" x="596" y="-220.499" font-family="Arial" font-size="10.00" fill="#ffffff">2.86%</text>
<text text-anchor="middle" x="596" y="-209" font-family="Arial" font-size="10.00" fill="#ffffff">(0.97%)</text>
<text text-anchor="middle" x="596" y="-197.501" font-family="Arial" font-size="10.00" fill="#ffffff">31</text>
</g>
<!-- 108 -->
<g id="node19" class="node"><title>108</title>
<path fill="#0d0f74" stroke="#0d0f74" d="M511.183,-149.996C511.183,-149.996 418.817,-149.996 418.817,-149.996 412.817,-149.996 406.817,-143.996 406.817,-137.996 406.817,-137.996 406.817,-108.004 406.817,-108.004 406.817,-102.004 412.817,-96.0039 418.817,-96.0039 418.817,-96.0039 511.183,-96.0039 511.183,-96.0039 517.183,-96.0039 523.183,-102.004 523.183,-108.004 523.183,-108.004 523.183,-137.996 523.183,-137.996 523.183,-143.996 517.183,-149.996 511.183,-149.996"/>
<text text-anchor="middle" x="465" y="-135.998" font-family="Arial" font-size="10.00" fill="#ffffff">__init__:445:usesTime</text>
<text text-anchor="middle" x="465" y="-124.499" font-family="Arial" font-size="10.00" fill="#ffffff">0.61%</text>
<text text-anchor="middle" x="465" y="-113" font-family="Arial" font-size="10.00" fill="#ffffff">(0.37%)</text>
<text text-anchor="middle" x="465" y="-101.501" font-family="Arial" font-size="10.00" fill="#ffffff">31</text>
</g>
<!-- 13&#45;&gt;108 -->
<g id="edge13" class="edge"><title>13&#45;&gt;108</title>
<path fill="none" stroke="#0d0f74" stroke-width="0.5" d="M559.509,-191.816C542.333,-179.491 521.822,-164.773 504.304,-152.203"/>
<polygon fill="#0d0f74" stroke="#0d0f74" points="504.853,-151.089 501.295,-150.044 503.425,-153.08 504.853,-151.089"/>
<text text-anchor="middle" x="560.177" y="-172.499" font-family="Arial" font-size="10.00" fill="#0d0f74">0.61%</text>
<text text-anchor="middle" x="560.177" y="-161" font-family="Arial" font-size="10.00" fill="#0d0f74">31</text>
</g>
<!-- 13&#45;&gt;12 -->
<g id="edge14" class="edge"><title>13&#45;&gt;12</title>
<path fill="none" stroke="#0d1274" stroke-width="0.5" d="M596,-191.816C596,-180 596,-165.985 596,-153.772"/>
<polygon fill="#0d1274" stroke="#0d1274" points="597.225,-153.544 596,-150.044 594.775,-153.544 597.225,-153.544"/>
<text text-anchor="middle" x="610.177" y="-172.499" font-family="Arial" font-size="10.00" fill="#0d1274">1.28%</text>
<text text-anchor="middle" x="610.177" y="-161" font-family="Arial" font-size="10.00" fill="#0d1274">31</text>
</g>
<!-- 15 -->
<g id="node20" class="node"><title>15</title>
<path fill="#0d1a77" stroke="#0d1a77" d="M743.21,-341.996C743.21,-341.996 666.79,-341.996 666.79,-341.996 660.79,-341.996 654.79,-335.996 654.79,-329.996 654.79,-329.996 654.79,-300.004 654.79,-300.004 654.79,-294.004 660.79,-288.004 666.79,-288.004 666.79,-288.004 743.21,-288.004 743.21,-288.004 749.21,-288.004 755.21,-294.004 755.21,-300.004 755.21,-300.004 755.21,-329.996 755.21,-329.996 755.21,-335.996 749.21,-341.996 743.21,-341.996"/>
<text text-anchor="middle" x="705" y="-327.998" font-family="Arial" font-size="10.00" fill="#ffffff">__init__:708:format</text>
<text text-anchor="middle" x="705" y="-316.499" font-family="Arial" font-size="10.00" fill="#ffffff">3.12%</text>
<text text-anchor="middle" x="705" y="-305" font-family="Arial" font-size="10.00" fill="#ffffff">(0.27%)</text>
<text text-anchor="middle" x="705" y="-293.501" font-family="Arial" font-size="10.00" fill="#ffffff">31</text>
</g>
<!-- 15&#45;&gt;13 -->
<g id="edge15" class="edge"><title>15&#45;&gt;13</title>
<path fill="none" stroke="#0d1976" stroke-width="0.5" d="M674.637,-287.816C660.464,-275.593 643.561,-261.016 629.065,-248.515"/>
<polygon fill="#0d1976" stroke="#0d1976" points="629.65,-247.402 626.2,-246.044 628.05,-249.257 629.65,-247.402"/>
<text text-anchor="middle" x="677.177" y="-268.499" font-family="Arial" font-size="10.00" fill="#0d1976">2.86%</text>
<text text-anchor="middle" x="677.177" y="-257" font-family="Arial" font-size="10.00" fill="#0d1976">31</text>
</g>
<!-- 16&#45;&gt;136 -->
<g id="edge16" class="edge"><title>16&#45;&gt;136</title>
<path fill="none" stroke="#0d0d73" stroke-width="0.5" d="M589.856,-385.662C588.232,-385.067 586.611,-384.51 585,-384 558.035,-375.461 549.851,-379.93 522,-375 452.217,-362.649 419.138,-388.889 366,-342 356.831,-333.909 357,-328.228 357,-316 357,-316 357,-316 357,-122 357,-100.581 357,-76.4161 357,-57.9513"/>
<polygon fill="#0d0d73" stroke="#0d0d73" points="358.225,-57.8368 357,-54.3369 355.775,-57.8369 358.225,-57.8368"/>
<text text-anchor="middle" x="371.177" y="-220.499" font-family="Arial" font-size="10.00" fill="#0d0d73">0.12%</text>
<text text-anchor="middle" x="371.177" y="-209" font-family="Arial" font-size="10.00" fill="#0d0d73">31</text>
</g>
<!-- 138 -->
<g id="node22" class="node"><title>138</title>
<path fill="#0d1275" stroke="#0d1275" d="M528.998,-341.996C528.998,-341.996 383.002,-341.996 383.002,-341.996 377.002,-341.996 371.002,-335.996 371.002,-329.996 371.002,-329.996 371.002,-300.004 371.002,-300.004 371.002,-294.004 377.002,-288.004 383.002,-288.004 383.002,-288.004 528.998,-288.004 528.998,-288.004 534.998,-288.004 540.998,-294.004 540.998,-300.004 540.998,-300.004 540.998,-329.996 540.998,-329.996 540.998,-335.996 534.998,-341.996 528.998,-341.996"/>
<text text-anchor="middle" x="456" y="-327.998" font-family="Arial" font-size="10.00" fill="#ffffff">~:0:&lt;method &#39;write&#39; of &#39;file&#39; objects&gt;</text>
<text text-anchor="middle" x="456" y="-316.499" font-family="Arial" font-size="10.00" fill="#ffffff">1.37%</text>
<text text-anchor="middle" x="456" y="-305" font-family="Arial" font-size="10.00" fill="#ffffff">(1.37%)</text>
<text text-anchor="middle" x="456" y="-293.501" font-family="Arial" font-size="10.00" fill="#ffffff">31</text>
</g>
<!-- 16&#45;&gt;138 -->
<g id="edge17" class="edge"><title>16&#45;&gt;138</title>
<path fill="none" stroke="#0d1275" stroke-width="0.5" d="M589.646,-385.793C565.122,-372.986 534.894,-357.2 509.392,-343.883"/>
<polygon fill="#0d1275" stroke="#0d1275" points="509.656,-342.639 505.987,-342.104 508.522,-344.81 509.656,-342.639"/>
<text text-anchor="middle" x="581.177" y="-364.499" font-family="Arial" font-size="10.00" fill="#0d1275">1.37%</text>
<text text-anchor="middle" x="581.177" y="-353" font-family="Arial" font-size="10.00" fill="#0d1275">31</text>
</g>
<!-- 84 -->
<g id="node23" class="node"><title>84</title>
<path fill="#0d0f74" stroke="#0d0f74" d="M633.296,-341.996C633.296,-341.996 562.704,-341.996 562.704,-341.996 556.704,-341.996 550.704,-335.996 550.704,-329.996 550.704,-329.996 550.704,-300.004 550.704,-300.004 550.704,-294.004 556.704,-288.004 562.704,-288.004 562.704,-288.004 633.296,-288.004 633.296,-288.004 639.296,-288.004 645.296,-294.004 645.296,-300.004 645.296,-300.004 645.296,-329.996 645.296,-329.996 645.296,-335.996 639.296,-341.996 633.296,-341.996"/>
<text text-anchor="middle" x="598" y="-327.998" font-family="Arial" font-size="10.00" fill="#ffffff">__init__:823:flush</text>
<text text-anchor="middle" x="598" y="-316.499" font-family="Arial" font-size="10.00" fill="#ffffff">0.64%</text>
<text text-anchor="middle" x="598" y="-305" font-family="Arial" font-size="10.00" fill="#ffffff">(0.42%)</text>
<text text-anchor="middle" x="598" y="-293.501" font-family="Arial" font-size="10.00" fill="#ffffff">31</text>
</g>
<!-- 16&#45;&gt;84 -->
<g id="edge18" class="edge"><title>16&#45;&gt;84</title>
<path fill="none" stroke="#0d0f74" stroke-width="0.5" d="M625.415,-383.816C620.597,-371.898 614.875,-357.744 609.908,-345.456"/>
<polygon fill="#0d0f74" stroke="#0d0f74" points="610.976,-344.83 608.528,-342.044 608.704,-345.748 610.976,-344.83"/>
<text text-anchor="middle" x="635.177" y="-364.499" font-family="Arial" font-size="10.00" fill="#0d0f74">0.64%</text>
<text text-anchor="middle" x="635.177" y="-353" font-family="Arial" font-size="10.00" fill="#0d0f74">31</text>
</g>
<!-- 16&#45;&gt;15 -->
<g id="edge19" class="edge"><title>16&#45;&gt;15</title>
<path fill="none" stroke="#0d1a77" stroke-width="0.5" d="M655.22,-383.816C664.043,-371.797 674.536,-357.501 683.609,-345.142"/>
<polygon fill="#0d1a77" stroke="#0d1a77" points="684.799,-345.59 685.883,-342.044 682.824,-344.14 684.799,-345.59"/>
<text text-anchor="middle" x="692.177" y="-364.499" font-family="Arial" font-size="10.00" fill="#0d1a77">3.12%</text>
<text text-anchor="middle" x="692.177" y="-353" font-family="Arial" font-size="10.00" fill="#0d1a77">31</text>
</g>
<!-- 24 -->
<g id="node25" class="node"><title>24</title>
<path fill="#0d1274" stroke="#0d1274" d="M111.463,-245.996C111.463,-245.996 22.5366,-245.996 22.5366,-245.996 16.5366,-245.996 10.5366,-239.996 10.5366,-233.996 10.5366,-233.996 10.5366,-204.004 10.5366,-204.004 10.5366,-198.004 16.5366,-192.004 22.5366,-192.004 22.5366,-192.004 111.463,-192.004 111.463,-192.004 117.463,-192.004 123.463,-198.004 123.463,-204.004 123.463,-204.004 123.463,-233.996 123.463,-233.996 123.463,-239.996 117.463,-245.996 111.463,-245.996"/>
<text text-anchor="middle" x="67" y="-231.998" font-family="Arial" font-size="10.00" fill="#ffffff">sre_parse:379:_parse</text>
<text text-anchor="middle" x="67" y="-220.499" font-family="Arial" font-size="10.00" fill="#ffffff">1.33%</text>
<text text-anchor="middle" x="67" y="-209" font-family="Arial" font-size="10.00" fill="#ffffff">(0.47%)</text>
<text text-anchor="middle" x="67" y="-197.501" font-family="Arial" font-size="10.00" fill="#ffffff">2</text>
</g>
<!-- 92 -->
<g id="node26" class="node"><title>92</title>
<path fill="#0d0f74" stroke="#0d0f74" d="M102.959,-149.996C102.959,-149.996 31.0408,-149.996 31.0408,-149.996 25.0408,-149.996 19.0408,-143.996 19.0408,-137.996 19.0408,-137.996 19.0408,-108.004 19.0408,-108.004 19.0408,-102.004 25.0408,-96.0039 31.0408,-96.0039 31.0408,-96.0039 102.959,-96.0039 102.959,-96.0039 108.959,-96.0039 114.959,-102.004 114.959,-108.004 114.959,-108.004 114.959,-137.996 114.959,-137.996 114.959,-143.996 108.959,-149.996 102.959,-149.996"/>
<text text-anchor="middle" x="67" y="-135.998" font-family="Arial" font-size="10.00" fill="#ffffff">sre_parse:201:get</text>
<text text-anchor="middle" x="67" y="-124.499" font-family="Arial" font-size="10.00" fill="#ffffff">0.59%</text>
<text text-anchor="middle" x="67" y="-113" font-family="Arial" font-size="10.00" fill="#ffffff">(0.22%)</text>
<text text-anchor="middle" x="67" y="-101.501" font-family="Arial" font-size="10.00" fill="#ffffff">26</text>
</g>
<!-- 24&#45;&gt;92 -->
<g id="edge20" class="edge"><title>24&#45;&gt;92</title>
<path fill="none" stroke="#0d0f73" stroke-width="0.5" d="M67,-191.816C67,-180 67,-165.985 67,-153.772"/>
<polygon fill="#0d0f73" stroke="#0d0f73" points="68.2251,-153.544 67,-150.044 65.7751,-153.544 68.2251,-153.544"/>
<text text-anchor="middle" x="81.1772" y="-172.499" font-family="Arial" font-size="10.00" fill="#0d0f73">0.56%</text>
<text text-anchor="middle" x="81.1772" y="-161" font-family="Arial" font-size="10.00" fill="#0d0f73">24</text>
</g>
<!-- 109 -->
<g id="node44" class="node"><title>109</title>
<path fill="#0d1a77" stroke="#0d1a77" d="M421.291,-629.996C421.291,-629.996 348.709,-629.996 348.709,-629.996 342.709,-629.996 336.709,-623.996 336.709,-617.996 336.709,-617.996 336.709,-588.004 336.709,-588.004 336.709,-582.004 342.709,-576.004 348.709,-576.004 348.709,-576.004 421.291,-576.004 421.291,-576.004 427.291,-576.004 433.291,-582.004 433.291,-588.004 433.291,-588.004 433.291,-617.996 433.291,-617.996 433.291,-623.996 427.291,-629.996 421.291,-629.996"/>
<text text-anchor="middle" x="385" y="-615.998" font-family="Arial" font-size="10.00" fill="#ffffff">bisect:1:&lt;module&gt;</text>
<text text-anchor="middle" x="385" y="-604.499" font-family="Arial" font-size="10.00" fill="#ffffff">3.12%</text>
<text text-anchor="middle" x="385" y="-593" font-family="Arial" font-size="10.00" fill="#ffffff">(3.12%)</text>
<text text-anchor="middle" x="385" y="-581.501" font-family="Arial" font-size="10.00" fill="#ffffff">1</text>
</g>
<!-- 90&#45;&gt;109 -->
<g id="edge43" class="edge"><title>90&#45;&gt;109</title>
<path fill="none" stroke="#0d1a77" stroke-width="0.5" d="M385,-671.816C385,-660 385,-645.985 385,-633.772"/>
<polygon fill="#0d1a77" stroke="#0d1a77" points="386.225,-633.544 385,-630.044 383.775,-633.544 386.225,-633.544"/>
<text text-anchor="middle" x="399.177" y="-652.499" font-family="Arial" font-size="10.00" fill="#0d1a77">3.12%</text>
<text text-anchor="middle" x="399.177" y="-641" font-family="Arial" font-size="10.00" fill="#0d1a77">1</text>
</g>
<!-- 27 -->
<g id="node28" class="node"><title>27</title>
<path fill="#0d0f73" stroke="#0d0f73" d="M579.316,-821.996C579.316,-821.996 466.684,-821.996 466.684,-821.996 460.684,-821.996 454.684,-815.996 454.684,-809.996 454.684,-809.996 454.684,-780.004 454.684,-780.004 454.684,-774.004 460.684,-768.004 466.684,-768.004 466.684,-768.004 579.316,-768.004 579.316,-768.004 585.316,-768.004 591.316,-774.004 591.316,-780.004 591.316,-780.004 591.316,-809.996 591.316,-809.996 591.316,-815.996 585.316,-821.996 579.316,-821.996"/>
<text text-anchor="middle" x="523" y="-807.998" font-family="Arial" font-size="10.00" fill="#ffffff">__init__:1324:isEnabledFor</text>
<text text-anchor="middle" x="523" y="-796.499" font-family="Arial" font-size="10.00" fill="#ffffff">0.53%</text>
<text text-anchor="middle" x="523" y="-785" font-family="Arial" font-size="10.00" fill="#ffffff">(0.27%)</text>
<text text-anchor="middle" x="523" y="-773.501" font-family="Arial" font-size="10.00" fill="#ffffff">31</text>
</g>
<!-- 28 -->
<g id="node29" class="node"><title>28</title>
<path fill="#0c8e92" stroke="#0c8e92" d="M563.366,-917.996C563.366,-917.996 482.634,-917.996 482.634,-917.996 476.634,-917.996 470.634,-911.996 470.634,-905.996 470.634,-905.996 470.634,-876.004 470.634,-876.004 470.634,-870.004 476.634,-864.004 482.634,-864.004 482.634,-864.004 563.366,-864.004 563.366,-864.004 569.366,-864.004 575.366,-870.004 575.366,-876.004 575.366,-876.004 575.366,-905.996 575.366,-905.996 575.366,-911.996 569.366,-917.996 563.366,-917.996"/>
<text text-anchor="middle" x="523" y="-903.998" font-family="Arial" font-size="10.00" fill="#ffffff">__init__:1110:debug</text>
<text text-anchor="middle" x="523" y="-892.499" font-family="Arial" font-size="10.00" fill="#ffffff">24.17%</text>
<text text-anchor="middle" x="523" y="-881" font-family="Arial" font-size="10.00" fill="#ffffff">(0.97%)</text>
<text text-anchor="middle" x="523" y="-869.501" font-family="Arial" font-size="10.00" fill="#ffffff">31</text>
</g>
<!-- 28&#45;&gt;27 -->
<g id="edge22" class="edge"><title>28&#45;&gt;27</title>
<path fill="none" stroke="#0d0f73" stroke-width="0.5" d="M523,-863.816C523,-852 523,-837.985 523,-825.772"/>
<polygon fill="#0d0f73" stroke="#0d0f73" points="524.225,-825.544 523,-822.044 521.775,-825.544 524.225,-825.544"/>
<text text-anchor="middle" x="537.177" y="-844.499" font-family="Arial" font-size="10.00" fill="#0d0f73">0.53%</text>
<text text-anchor="middle" x="537.177" y="-833" font-family="Arial" font-size="10.00" fill="#0d0f73">31</text>
</g>
<!-- 69 -->
<g id="node30" class="node"><title>69</title>
<path fill="#0c8490" stroke="#0c8490" d="M686.305,-821.996C686.305,-821.996 613.695,-821.996 613.695,-821.996 607.695,-821.996 601.695,-815.996 601.695,-809.996 601.695,-809.996 601.695,-780.004 601.695,-780.004 601.695,-774.004 607.695,-768.004 613.695,-768.004 613.695,-768.004 686.305,-768.004 686.305,-768.004 692.305,-768.004 698.305,-774.004 698.305,-780.004 698.305,-780.004 698.305,-809.996 698.305,-809.996 698.305,-815.996 692.305,-821.996 686.305,-821.996"/>
<text text-anchor="middle" x="650" y="-807.998" font-family="Arial" font-size="10.00" fill="#ffffff">__init__:1231:_log</text>
<text text-anchor="middle" x="650" y="-796.499" font-family="Arial" font-size="10.00" fill="#ffffff">22.67%</text>
<text text-anchor="middle" x="650" y="-785" font-family="Arial" font-size="10.00" fill="#ffffff">(0.84%)</text>
<text text-anchor="middle" x="650" y="-773.501" font-family="Arial" font-size="10.00" fill="#ffffff">31</text>
</g>
<!-- 28&#45;&gt;69 -->
<g id="edge23" class="edge"><title>28&#45;&gt;69</title>
<path fill="none" stroke="#0c8490" stroke-width="0.91" d="M558.377,-863.816C574.615,-851.797 593.929,-837.501 610.628,-825.142"/>
<polygon fill="#0c8490" stroke="#0c8490" points="611.954,-826.25 614.813,-822.044 609.955,-823.549 611.954,-826.25"/>
<text text-anchor="middle" x="617.958" y="-844.499" font-family="Arial" font-size="10.00" fill="#0c8490">22.67%</text>
<text text-anchor="middle" x="617.958" y="-833" font-family="Arial" font-size="10.00" fill="#0c8490">31</text>
</g>
<!-- 41 -->
<g id="node32" class="node"><title>41</title>
<path fill="#0d327d" stroke="#0d327d" d="M569.143,-725.996C569.143,-725.996 458.857,-725.996 458.857,-725.996 452.857,-725.996 446.857,-719.996 446.857,-713.996 446.857,-713.996 446.857,-684.004 446.857,-684.004 446.857,-678.004 452.857,-672.004 458.857,-672.004 458.857,-672.004 569.143,-672.004 569.143,-672.004 575.143,-672.004 581.143,-678.004 581.143,-684.004 581.143,-684.004 581.143,-713.996 581.143,-713.996 581.143,-719.996 575.143,-725.996 569.143,-725.996"/>
<text text-anchor="middle" x="514" y="-711.998" font-family="Arial" font-size="10.00" fill="#ffffff">__init__:1218:makeRecord</text>
<text text-anchor="middle" x="514" y="-700.499" font-family="Arial" font-size="10.00" fill="#ffffff">8.30%</text>
<text text-anchor="middle" x="514" y="-689" font-family="Arial" font-size="10.00" fill="#ffffff">(0.56%)</text>
<text text-anchor="middle" x="514" y="-677.501" font-family="Arial" font-size="10.00" fill="#ffffff">31</text>
</g>
<!-- 69&#45;&gt;41 -->
<g id="edge33" class="edge"><title>69&#45;&gt;41</title>
<path fill="none" stroke="#0d327d" stroke-width="0.5" d="M612.116,-767.816C594.285,-755.491 572.991,-740.773 554.804,-728.203"/>
<polygon fill="#0d327d" stroke="#0d327d" points="555.256,-727.026 551.68,-726.044 553.863,-729.042 555.256,-727.026"/>
<text text-anchor="middle" x="612.177" y="-748.499" font-family="Arial" font-size="10.00" fill="#0d327d">8.30%</text>
<text text-anchor="middle" x="612.177" y="-737" font-family="Arial" font-size="10.00" fill="#0d327d">31</text>
</g>
<!-- 50 -->
<g id="node36" class="node"><title>50</title>
<path fill="#0d1375" stroke="#0d1375" d="M699.249,-725.996C699.249,-725.996 602.751,-725.996 602.751,-725.996 596.751,-725.996 590.751,-719.996 590.751,-713.996 590.751,-713.996 590.751,-684.004 590.751,-684.004 590.751,-678.004 596.751,-672.004 602.751,-672.004 602.751,-672.004 699.249,-672.004 699.249,-672.004 705.249,-672.004 711.249,-678.004 711.249,-684.004 711.249,-684.004 711.249,-713.996 711.249,-713.996 711.249,-719.996 705.249,-725.996 699.249,-725.996"/>
<text text-anchor="middle" x="651" y="-711.998" font-family="Arial" font-size="10.00" fill="#ffffff">__init__:1197:findCaller</text>
<text text-anchor="middle" x="651" y="-700.499" font-family="Arial" font-size="10.00" fill="#ffffff">1.56%</text>
<text text-anchor="middle" x="651" y="-689" font-family="Arial" font-size="10.00" fill="#ffffff">(0.98%)</text>
<text text-anchor="middle" x="651" y="-677.501" font-family="Arial" font-size="10.00" fill="#ffffff">31</text>
</g>
<!-- 69&#45;&gt;50 -->
<g id="edge34" class="edge"><title>69&#45;&gt;50</title>
<path fill="none" stroke="#0d1375" stroke-width="0.5" d="M650.279,-767.816C650.404,-756 650.553,-741.985 650.683,-729.772"/>
<polygon fill="#0d1375" stroke="#0d1375" points="651.911,-729.557 650.723,-726.044 649.461,-729.531 651.911,-729.557"/>
<text text-anchor="middle" x="664.177" y="-748.499" font-family="Arial" font-size="10.00" fill="#0d1375">1.56%</text>
<text text-anchor="middle" x="664.177" y="-737" font-family="Arial" font-size="10.00" fill="#0d1375">31</text>
</g>
<!-- 69&#45;&gt;11 -->
<g id="edge35" class="edge"><title>69&#45;&gt;11</title>
<path fill="none" stroke="#0d4582" stroke-width="0.5" d="M684.819,-767.816C701.209,-755.491 720.78,-740.773 737.496,-728.203"/>
<polygon fill="#0d4582" stroke="#0d4582" points="738.306,-729.127 740.367,-726.044 736.834,-727.168 738.306,-729.127"/>
<text text-anchor="middle" x="743.587" y="-748.499" font-family="Arial" font-size="10.00" fill="#0d4582">11.97%</text>
<text text-anchor="middle" x="743.587" y="-737" font-family="Arial" font-size="10.00" fill="#0d4582">31</text>
</g>
<!-- 41&#45;&gt;1 -->
<g id="edge24" class="edge"><title>41&#45;&gt;1</title>
<path fill="none" stroke="#0d2f7d" stroke-width="0.5" d="M514,-671.816C514,-660 514,-645.985 514,-633.772"/>
<polygon fill="#0d2f7d" stroke="#0d2f7d" points="515.225,-633.544 514,-630.044 512.775,-633.544 515.225,-633.544"/>
<text text-anchor="middle" x="528.177" y="-652.499" font-family="Arial" font-size="10.00" fill="#0d2f7d">7.73%</text>
<text text-anchor="middle" x="528.177" y="-641" font-family="Arial" font-size="10.00" fill="#0d2f7d">31</text>
</g>
<!-- 42 -->
<g id="node33" class="node"><title>42</title>
<path fill="#0d1c77" stroke="#0d1c77" d="M279.364,-629.996C279.364,-629.996 216.636,-629.996 216.636,-629.996 210.636,-629.996 204.636,-623.996 204.636,-617.996 204.636,-617.996 204.636,-588.004 204.636,-588.004 204.636,-582.004 210.636,-576.004 216.636,-576.004 216.636,-576.004 279.364,-576.004 279.364,-576.004 285.364,-576.004 291.364,-582.004 291.364,-588.004 291.364,-588.004 291.364,-617.996 291.364,-617.996 291.364,-623.996 285.364,-629.996 279.364,-629.996"/>
<text text-anchor="middle" x="248" y="-615.998" font-family="Arial" font-size="10.00" fill="#ffffff">re:228:_compile</text>
<text text-anchor="middle" x="248" y="-604.499" font-family="Arial" font-size="10.00" fill="#ffffff">3.62%</text>
<text text-anchor="middle" x="248" y="-593" font-family="Arial" font-size="10.00" fill="#ffffff">(0.22%)</text>
<text text-anchor="middle" x="248" y="-581.501" font-family="Arial" font-size="10.00" fill="#ffffff">2</text>
</g>
<!-- 65 -->
<g id="node34" class="node"><title>65</title>
<path fill="#0d1b77" stroke="#0d1b77" d="M270.959,-533.996C270.959,-533.996 169.041,-533.996 169.041,-533.996 163.041,-533.996 157.041,-527.996 157.041,-521.996 157.041,-521.996 157.041,-492.004 157.041,-492.004 157.041,-486.004 163.041,-480.004 169.041,-480.004 169.041,-480.004 270.959,-480.004 270.959,-480.004 276.959,-480.004 282.959,-486.004 282.959,-492.004 282.959,-492.004 282.959,-521.996 282.959,-521.996 282.959,-527.996 276.959,-533.996 270.959,-533.996"/>
<text text-anchor="middle" x="220" y="-519.998" font-family="Arial" font-size="10.00" fill="#ffffff">sre_compile:495:compile</text>
<text text-anchor="middle" x="220" y="-508.499" font-family="Arial" font-size="10.00" fill="#ffffff">3.36%</text>
<text text-anchor="middle" x="220" y="-497" font-family="Arial" font-size="10.00" fill="#ffffff">(0.12%)</text>
<text text-anchor="middle" x="220" y="-485.501" font-family="Arial" font-size="10.00" fill="#ffffff">2</text>
</g>
<!-- 42&#45;&gt;65 -->
<g id="edge25" class="edge"><title>42&#45;&gt;65</title>
<path fill="none" stroke="#0d1b77" stroke-width="0.5" d="M240.2,-575.816C236.651,-563.898 232.434,-549.744 228.774,-537.456"/>
<polygon fill="#0d1b77" stroke="#0d1b77" points="229.931,-537.048 227.758,-534.044 227.583,-537.748 229.931,-537.048"/>
<text text-anchor="middle" x="252.177" y="-556.499" font-family="Arial" font-size="10.00" fill="#0d1b77">3.36%</text>
<text text-anchor="middle" x="252.177" y="-545" font-family="Arial" font-size="10.00" fill="#0d1b77">2</text>
</g>
<!-- 64 -->
<g id="node39" class="node"><title>64</title>
<path fill="#0d1475" stroke="#0d1475" d="M130.294,-437.996C130.294,-437.996 47.7058,-437.996 47.7058,-437.996 41.7058,-437.996 35.7058,-431.996 35.7058,-425.996 35.7058,-425.996 35.7058,-396.004 35.7058,-396.004 35.7058,-390.004 41.7058,-384.004 47.7058,-384.004 47.7058,-384.004 130.294,-384.004 130.294,-384.004 136.294,-384.004 142.294,-390.004 142.294,-396.004 142.294,-396.004 142.294,-425.996 142.294,-425.996 142.294,-431.996 136.294,-437.996 130.294,-437.996"/>
<text text-anchor="middle" x="89" y="-423.998" font-family="Arial" font-size="10.00" fill="#ffffff">sre_parse:663:parse</text>
<text text-anchor="middle" x="89" y="-412.499" font-family="Arial" font-size="10.00" fill="#ffffff">1.72%</text>
<text text-anchor="middle" x="89" y="-401" font-family="Arial" font-size="10.00" fill="#ffffff">(0.14%)</text>
<text text-anchor="middle" x="89" y="-389.501" font-family="Arial" font-size="10.00" fill="#ffffff">2</text>
</g>
<!-- 65&#45;&gt;64 -->
<g id="edge31" class="edge"><title>65&#45;&gt;64</title>
<path fill="none" stroke="#0d1475" stroke-width="0.5" d="M183.509,-479.816C166.333,-467.491 145.822,-452.773 128.304,-440.203"/>
<polygon fill="#0d1475" stroke="#0d1475" points="128.853,-439.089 125.295,-438.044 127.425,-441.08 128.853,-439.089"/>
<text text-anchor="middle" x="185.177" y="-460.499" font-family="Arial" font-size="10.00" fill="#0d1475">1.72%</text>
<text text-anchor="middle" x="185.177" y="-449" font-family="Arial" font-size="10.00" fill="#0d1475">2</text>
</g>
<!-- 65&#45;&gt;4 -->
<g id="edge32" class="edge"><title>65&#45;&gt;4</title>
<path fill="none" stroke="#0d1375" stroke-width="0.5" d="M220,-479.816C220,-468 220,-453.985 220,-441.772"/>
<polygon fill="#0d1375" stroke="#0d1375" points="221.225,-441.544 220,-438.044 218.775,-441.544 221.225,-441.544"/>
<text text-anchor="middle" x="234.177" y="-460.499" font-family="Arial" font-size="10.00" fill="#0d1375">1.42%</text>
<text text-anchor="middle" x="234.177" y="-449" font-family="Arial" font-size="10.00" fill="#0d1375">2</text>
</g>
<!-- 43&#45;&gt;42 -->
<g id="edge26" class="edge"><title>43&#45;&gt;42</title>
<path fill="none" stroke="#0d1c77" stroke-width="0.5" d="M250.164,-671.816C249.787,-660 249.34,-645.985 248.95,-633.772"/>
<polygon fill="#0d1c77" stroke="#0d1c77" points="250.167,-633.503 248.831,-630.044 247.719,-633.581 250.167,-633.503"/>
<text text-anchor="middle" x="264.177" y="-652.499" font-family="Arial" font-size="10.00" fill="#0d1c77">3.62%</text>
<text text-anchor="middle" x="264.177" y="-641" font-family="Arial" font-size="10.00" fill="#0d1c77">2</text>
</g>
<!-- 125 -->
<g id="node41" class="node"><title>125</title>
<path fill="#0d1375" stroke="#0d1375" d="M865.054,-341.996C865.054,-341.996 776.946,-341.996 776.946,-341.996 770.946,-341.996 764.946,-335.996 764.946,-329.996 764.946,-329.996 764.946,-300.004 764.946,-300.004 764.946,-294.004 770.946,-288.004 776.946,-288.004 776.946,-288.004 865.054,-288.004 865.054,-288.004 871.054,-288.004 877.054,-294.004 877.054,-300.004 877.054,-300.004 877.054,-329.996 877.054,-329.996 877.054,-335.996 871.054,-341.996 865.054,-341.996"/>
<text text-anchor="middle" x="821" y="-327.998" font-family="Arial" font-size="10.00" fill="#ffffff">threading:121:acquire</text>
<text text-anchor="middle" x="821" y="-316.499" font-family="Arial" font-size="10.00" fill="#ffffff">1.44%</text>
<text text-anchor="middle" x="821" y="-305" font-family="Arial" font-size="10.00" fill="#ffffff">(0.87%)</text>
<text text-anchor="middle" x="821" y="-293.501" font-family="Arial" font-size="10.00" fill="#ffffff">35</text>
</g>
<!-- 76&#45;&gt;125 -->
<g id="edge36" class="edge"><title>76&#45;&gt;125</title>
<path fill="none" stroke="#0d1274" stroke-width="0.5" d="M817.393,-383.816C818.021,-372 818.767,-357.985 819.416,-345.772"/>
<polygon fill="#0d1274" stroke="#0d1274" points="820.652,-345.604 819.615,-342.044 818.205,-345.474 820.652,-345.604"/>
<text text-anchor="middle" x="833.177" y="-364.499" font-family="Arial" font-size="10.00" fill="#0d1274">1.25%</text>
<text text-anchor="middle" x="833.177" y="-353" font-family="Arial" font-size="10.00" fill="#0d1274">31</text>
</g>
<!-- 122 -->
<g id="node45" class="node"><title>122</title>
<path fill="#0d1375" stroke="#0d1375" d="M987.054,-341.996C987.054,-341.996 898.946,-341.996 898.946,-341.996 892.946,-341.996 886.946,-335.996 886.946,-329.996 886.946,-329.996 886.946,-300.004 886.946,-300.004 886.946,-294.004 892.946,-288.004 898.946,-288.004 898.946,-288.004 987.054,-288.004 987.054,-288.004 993.054,-288.004 999.054,-294.004 999.054,-300.004 999.054,-300.004 999.054,-329.996 999.054,-329.996 999.054,-335.996 993.054,-341.996 987.054,-341.996"/>
<text text-anchor="middle" x="943" y="-327.998" font-family="Arial" font-size="10.00" fill="#ffffff">threading:141:release</text>
<text text-anchor="middle" x="943" y="-316.499" font-family="Arial" font-size="10.00" fill="#ffffff">1.39%</text>
<text text-anchor="middle" x="943" y="-305" font-family="Arial" font-size="10.00" fill="#ffffff">(0.97%)</text>
<text text-anchor="middle" x="943" y="-293.501" font-family="Arial" font-size="10.00" fill="#ffffff">35</text>
</g>
<!-- 102&#45;&gt;122 -->
<g id="edge45" class="edge"><title>102&#45;&gt;122</title>
<path fill="none" stroke="#0d1274" stroke-width="0.5" d="M938.671,-383.816C939.426,-372 940.32,-357.985 941.1,-345.772"/>
<polygon fill="#0d1274" stroke="#0d1274" points="942.337,-345.615 941.338,-342.044 939.892,-345.459 942.337,-345.615"/>
<text text-anchor="middle" x="954.177" y="-364.499" font-family="Arial" font-size="10.00" fill="#0d1274">1.25%</text>
<text text-anchor="middle" x="954.177" y="-353" font-family="Arial" font-size="10.00" fill="#0d1274">31</text>
</g>
<!-- 95 -->
<g id="node40" class="node"><title>95</title>
<path fill="#0d1375" stroke="#0d1375" d="M122.227,-341.996C122.227,-341.996 11.7726,-341.996 11.7726,-341.996 5.77265,-341.996 -0.227353,-335.996 -0.227353,-329.996 -0.227353,-329.996 -0.227353,-300.004 -0.227353,-300.004 -0.227353,-294.004 5.77265,-288.004 11.7726,-288.004 11.7726,-288.004 122.227,-288.004 122.227,-288.004 128.227,-288.004 134.227,-294.004 134.227,-300.004 134.227,-300.004 134.227,-329.996 134.227,-329.996 134.227,-335.996 128.227,-341.996 122.227,-341.996"/>
<text text-anchor="middle" x="67" y="-327.998" font-family="Arial" font-size="10.00" fill="#ffffff">sre_parse:301:_parse_sub</text>
<text text-anchor="middle" x="67" y="-316.499" font-family="Arial" font-size="10.00" fill="#ffffff">1.42%</text>
<text text-anchor="middle" x="67" y="-305" font-family="Arial" font-size="10.00" fill="#ffffff">(0.09%)</text>
<text text-anchor="middle" x="67" y="-293.501" font-family="Arial" font-size="10.00" fill="#ffffff">2</text>
</g>
<!-- 64&#45;&gt;95 -->
<g id="edge30" class="edge"><title>64&#45;&gt;95</title>
<path fill="none" stroke="#0d1375" stroke-width="0.5" d="M82.8718,-383.816C80.0826,-371.898 76.7698,-357.744 73.8941,-345.456"/>
<polygon fill="#0d1375" stroke="#0d1375" points="75.0858,-345.173 73.0954,-342.044 72.7003,-345.731 75.0858,-345.173"/>
<text text-anchor="middle" x="95.1772" y="-364.499" font-family="Arial" font-size="10.00" fill="#0d1375">1.42%</text>
<text text-anchor="middle" x="95.1772" y="-353" font-family="Arial" font-size="10.00" fill="#0d1375">2</text>
</g>
<!-- 95&#45;&gt;24 -->
<g id="edge44" class="edge"><title>95&#45;&gt;24</title>
<path fill="none" stroke="#0d1274" stroke-width="0.5" d="M67,-287.816C67,-276 67,-261.985 67,-249.772"/>
<polygon fill="#0d1274" stroke="#0d1274" points="68.2251,-249.544 67,-246.044 65.7751,-249.544 68.2251,-249.544"/>
<text text-anchor="middle" x="81.1772" y="-268.499" font-family="Arial" font-size="10.00" fill="#0d1274">1.33%</text>
<text text-anchor="middle" x="81.1772" y="-257" font-family="Arial" font-size="10.00" fill="#0d1274">2</text>
</g>
<!-- 85 -->
<g id="node42" class="node"><title>85</title>
<path fill="#ff0000" stroke="#ff0000" d="M407.118,-1110C407.118,-1110 348.882,-1110 348.882,-1110 342.882,-1110 336.882,-1104 336.882,-1098 336.882,-1098 336.882,-1068 336.882,-1068 336.882,-1062 342.882,-1056 348.882,-1056 348.882,-1056 407.118,-1056 407.118,-1056 413.118,-1056 419.118,-1062 419.118,-1068 419.118,-1068 419.118,-1098 419.118,-1098 419.118,-1104 413.118,-1110 407.118,-1110"/>
<text text-anchor="middle" x="378" y="-1096" font-family="Arial" font-size="10.00" fill="#ffffff">fib:1:&lt;module&gt;</text>
<text text-anchor="middle" x="378" y="-1084.5" font-family="Arial" font-size="10.00" fill="#ffffff">100.00%</text>
<text text-anchor="middle" x="378" y="-1073" font-family="Arial" font-size="10.00" fill="#ffffff">(6.55%)</text>
<text text-anchor="middle" x="378" y="-1061.5" font-family="Arial" font-size="10.00" fill="#ffffff">1</text>
</g>
<!-- 85&#45;&gt;9 -->
<g id="edge39" class="edge"><title>85&#45;&gt;9</title>
<path fill="none" stroke="#0d1074" stroke-width="0.5" d="M341.509,-1055.82C324.333,-1043.49 303.822,-1028.77 286.304,-1016.2"/>
<polygon fill="#0d1074" stroke="#0d1074" points="286.853,-1015.09 283.295,-1014.04 285.425,-1017.08 286.853,-1015.09"/>
<text text-anchor="middle" x="342.177" y="-1036.5" font-family="Arial" font-size="10.00" fill="#0d1074">0.81%</text>
<text text-anchor="middle" x="342.177" y="-1025" font-family="Arial" font-size="10.00" fill="#0d1074">1</text>
</g>
<!-- 85&#45;&gt;2 -->
<g id="edge40" class="edge"><title>85&#45;&gt;2</title>
<path fill="none" stroke="#95cf07" stroke-width="2.71" d="M378,-1055.82C378,-1045.43 378,-1033.34 378,-1022.27"/>
<polygon fill="#95cf07" stroke="#95cf07" points="380.87,-1022.24 378,-1014.04 375.13,-1022.24 380.87,-1022.24"/>
<text text-anchor="middle" x="394.958" y="-1036.5" font-family="Arial" font-size="10.00" fill="#95cf07">67.78%</text>
<text text-anchor="middle" x="394.958" y="-1025" font-family="Arial" font-size="10.00" fill="#95cf07">1</text>
</g>
<!-- 113 -->
<g id="node43" class="node"><title>113</title>
<path fill="#0c9093" stroke="#0c9093" d="M492.261,-1014C492.261,-1014 465.739,-1014 465.739,-1014 459.739,-1014 453.739,-1008 453.739,-1002 453.739,-1002 453.739,-972.004 453.739,-972.004 453.739,-966.004 459.739,-960.004 465.739,-960.004 465.739,-960.004 492.261,-960.004 492.261,-960.004 498.261,-960.004 504.261,-966.004 504.261,-972.004 504.261,-972.004 504.261,-1002 504.261,-1002 504.261,-1008 498.261,-1014 492.261,-1014"/>
<text text-anchor="middle" x="479" y="-999.998" font-family="Arial" font-size="10.00" fill="#ffffff">fib:9:fib</text>
<text text-anchor="middle" x="479" y="-988.499" font-family="Arial" font-size="10.00" fill="#ffffff">24.53%</text>
<text text-anchor="middle" x="479" y="-977" font-family="Arial" font-size="10.00" fill="#ffffff">(0.36%)</text>
<text text-anchor="middle" x="479" y="-965.501" font-family="Arial" font-size="10.00" fill="#ffffff">1</text>
</g>
<!-- 85&#45;&gt;113 -->
<g id="edge41" class="edge"><title>85&#45;&gt;113</title>
<path fill="none" stroke="#0c9093" stroke-width="0.98" d="M406.134,-1055.82C419.686,-1043.2 435.93,-1028.08 449.639,-1015.33"/>
<polygon fill="#0c9093" stroke="#0c9093" points="450.966,-1016.48 453.434,-1011.79 448.582,-1013.92 450.966,-1016.48"/>
<text text-anchor="middle" x="456.958" y="-1036.5" font-family="Arial" font-size="10.00" fill="#0c9093">24.53%</text>
<text text-anchor="middle" x="456.958" y="-1025" font-family="Arial" font-size="10.00" fill="#0c9093">1</text>
</g>
<!-- 113&#45;&gt;28 -->
<g id="edge46" class="edge"><title>113&#45;&gt;28</title>
<path fill="none" stroke="#0c8e92" stroke-width="0.97" d="M491.256,-959.816C496.644,-948.306 503.009,-934.709 508.619,-922.723"/>
<polygon fill="#0c8e92" stroke="#0c8e92" points="510.285,-923.209 510.809,-918.044 507.179,-921.755 510.285,-923.209"/>
<text text-anchor="middle" x="522.958" y="-940.499" font-family="Arial" font-size="10.00" fill="#0c8e92">24.17%</text>
<text text-anchor="middle" x="522.958" y="-929" font-family="Arial" font-size="10.00" fill="#0c8e92">31</text>
</g>
</g>
</svg>
